<?xml version="1.0" encoding="utf-8"?>
<!-- Generator: Adobe Illustrator 19.2.0, SVG Export Plug-In . SVG Version: 6.00 Build 0)  -->
<svg version="1.1" id="Layer_1" xmlns="http://www.w3.org/2000/svg" xmlns:xlink="http://www.w3.org/1999/xlink" x="0px" y="0px"
	 viewBox="0 0 21.9 17.2" style="enable-background:new 0 0 21.9 17.2;" xml:space="preserve">
<style type="text/css">
	.st0{fill:none;stroke:#FFFFFF;stroke-width:2;stroke-miterlimit:10;}
	.st1{fill:none;stroke:#E9EBF0;stroke-width:2;stroke-miterlimit:10;}
	.st2{fill:#040D0B;}
	.st3{fill:none;stroke:#FFFFFF;stroke-miterlimit:10;}
	.st4{fill:#FFFFFF;}
	.st5{fill:none;stroke:#000000;stroke-miterlimit:10;}
	.st6{fill:#E4B373;}
	.st7{fill:#84AEA3;}
	.st8{fill:none;stroke:#DB7578;stroke-width:2;stroke-miterlimit:10;}
	.st9{fill:#2B2D2E;}
	.st10{fill:none;stroke:#787A7C;stroke-miterlimit:10;}
	.st11{fill:#B2B2B4;}
	.st12{fill:none;stroke:#77797B;stroke-width:2;stroke-miterlimit:10;}
	.st13{fill:#77797B;}
	.st14{fill:#E9EBF0;}
	.st15{fill:none;stroke:#E9EBF0;stroke-miterlimit:10;}
</style>
<rect x="-205.1" y="-4.6" class="st0" width="45.3" height="46.1"/>
<rect x="-150.3" y="-4.6" class="st0" width="46.1" height="46.1"/>
<g>
	<rect x="-314.1" y="-4.5" class="st1" width="28.9" height="28.9"/>
	<rect x="-277" y="-4.5" class="st1" width="28.9" height="28.9"/>
	<rect x="-241.4" y="-4.5" class="st1" width="28.9" height="28.9"/>
	<g>
		<polygon class="st2" points="-267.8,2 -272.5,6 -270.2,9.7 -267.8,8.1 -267.8,17.8 -257.6,17.8 -257.6,8.1 -255.2,9.9 -252.4,6 
			-257.1,2 		"/>
		<polygon class="st3" points="-268,1.9 -272.8,6 -270.4,9.8 -268,8.1 -268,18.1 -257.5,18.1 -257.5,8.1 -255.1,10 -252.3,6 
			-257.1,1.9 		"/>
		<path class="st3" d="M-259.9,2.1c0.1,0,0,0.6,0,0.7c-0.3,1.6-2.2,2.4-3.7,1.9c-1.2-0.4-1.7-1.4-1.9-2.6H-259.9z"/>
	</g>
	<g>
		<polygon class="st4" points="-304.9,1.9 -309.8,6 -307.4,9.8 -304.9,8.1 -304.9,18.1 -294.9,18.1 -294.9,8.1 -292.6,10 
			-289.5,5.8 -294,1.9 		"/>
		<polygon class="st5" points="-304.9,1.8 -309.5,5.9 -307.2,9.8 -304.9,8.1 -304.9,18.1 -294.9,18.1 -294.9,8.1 -292.6,10 
			-289.8,5.9 -294.4,1.8 		"/>
		<path class="st5" d="M-296.8,2.1c0.1,0,0,0.6,0,0.6c-0.3,1.4-2,2.2-3.3,1.7c-1.1-0.4-1.5-1.3-1.7-2.3H-296.8z"/>
	</g>
	<g>
		<polygon class="st6" points="-235.5,1.4 -239.2,4.5 -237.4,7.5 -235.5,6.2 -235.5,13.9 -227.4,13.9 -227.4,6.2 -225.5,7.6 
			-223.3,4.5 -227,1.4 		"/>
		<path class="st3" d="M-229.2,1.5c0,0,0,0.5,0,0.5c-0.2,1.3-1.8,1.9-2.9,1.5c-1-0.3-1.3-1.1-1.5-2.1H-229.2z"/>
		<polygon class="st3" points="-235.5,1.3 -239.3,4.5 -237.4,7.5 -235.5,6.2 -235.5,14 -227.3,14 -227.3,6.2 -225.5,7.6 -223.2,4.5 
			-227,1.3 		"/>
		<g>
			<polygon class="st7" points="-227.3,3.7 -231.1,6.8 -229.2,9.8 -227.3,8.5 -227.3,16.2 -219.2,16.2 -219.2,8.5 -217.4,9.9 
				-215.2,6.8 -218.9,3.7 			"/>
			<path class="st3" d="M-221.1,3.8c0,0,0,0.5,0,0.5c-0.2,1.3-1.8,1.9-2.9,1.5c-1-0.3-1.3-1.1-1.5-2.1H-221.1z"/>
			<polygon class="st3" points="-227.1,3.6 -230.9,6.8 -229,9.8 -227.1,8.5 -227.1,16.3 -218.9,16.3 -218.9,8.5 -217.1,9.9 
				-214.8,6.8 -218.6,3.6 			"/>
		</g>
	</g>
</g>
<rect x="-274.8" y="-59" class="st1" width="24.4" height="24.4"/>
<rect x="-245.6" y="-59" class="st1" width="24.4" height="24.4"/>
<rect x="-215.7" y="-59" class="st1" width="24.4" height="24.4"/>
<rect x="-187" y="-59" class="st1" width="24.4" height="24.4"/>
<rect x="-157.8" y="-59" class="st1" width="24.4" height="24.4"/>
<rect x="-128.2" y="-59" class="st1" width="24.4" height="24.4"/>
<text transform="matrix(1 0 0 1 -264.8345 -43.773)" class="st4" style="font-family:'TTFirs-ExtraBold'; font-size:6.812px;">S</text>
<text transform="matrix(1 0 0 1 -236.6035 -43.1011)" class="st4" style="font-family:'TTFirs-ExtraBold'; font-size:6.812px;">M</text>
<text transform="matrix(1 0 0 1 -206.1314 -43.1011)" class="st4" style="font-family:'TTFirs-ExtraBold'; font-size:6.812px;">L</text>
<text transform="matrix(1 0 0 1 -178.8126 -43.1011)" class="st4" style="font-family:'TTFirs-ExtraBold'; font-size:6.812px;">XL</text>
<text transform="matrix(1 0 0 1 -152.5977 -43.1011)" class="st4" style="font-family:'TTFirs-ExtraBold'; font-size:6.812px;">XXL</text>
<text transform="matrix(1 0 0 1 -125.2627 -43.7046)" class="st4" style="font-family:'TTFirs-ExtraBold'; font-size:6.812px;">XXXL</text>
<rect x="-303.6" y="-59" class="st1" width="24.4" height="24.4"/>
<text transform="matrix(1 0 0 1 -296.4268 -43.773)" class="st4" style="font-family:'TTFirs-ExtraBold'; font-size:6.812px;">XS</text>
<rect x="68.4" y="-6" class="st8" width="45.3" height="46.1"/>
<rect x="123.2" y="-6" class="st8" width="46.1" height="46.1"/>
<rect x="-40.6" y="-5.8" class="st8" width="28.9" height="28.9"/>
<rect x="-3.5" y="-5.8" class="st8" width="28.9" height="28.9"/>
<rect x="32.1" y="-5.8" class="st8" width="28.9" height="28.9"/>
<g>
	<polygon class="st2" points="5.7,0.6 0.9,4.6 3.3,8.3 5.7,6.7 5.7,16.4 15.9,16.4 15.9,6.7 18.3,8.5 21.1,4.6 16.4,0.6 	"/>
	<polygon class="st3" points="5.5,0.5 0.7,4.6 3.1,8.4 5.5,6.8 5.5,16.7 16,16.7 16,6.8 18.3,8.6 21.2,4.6 16.4,0.5 	"/>
	<path class="st3" d="M13.6,0.7c0.1,0,0,0.6,0,0.7C13.3,3,11.4,3.8,9.9,3.3C8.7,2.9,8.2,1.9,8,0.7H13.6z"/>
</g>
<g>
	<polygon class="st4" points="-31.5,0.5 -36.3,4.6 -33.9,8.4 -31.5,6.8 -31.5,16.7 -21.4,16.7 -21.4,6.7 -19.1,8.6 -16,4.4 
		-20.6,0.5 	"/>
	<polygon class="st5" points="-31.4,0.4 -36.1,4.6 -33.7,8.4 -31.4,6.7 -31.4,16.7 -21.4,16.7 -21.4,6.7 -19.1,8.6 -16.4,4.6 
		-21,0.4 	"/>
	<path class="st5" d="M-23.4,0.8c0.1,0,0,0.6,0,0.6c-0.3,1.4-2,2.2-3.3,1.7c-1.1-0.4-1.5-1.3-1.7-2.3H-23.4z"/>
</g>
<polygon class="st9" points="295.7,0.5 291,4.5 293.3,8.3 295.7,6.6 295.7,16.4 306,16.4 306,6.6 308.3,8.4 311.1,4.5 306.4,0.5 "/>
<polygon class="st10" points="295.5,0.4 290.7,4.5 293.1,8.3 295.5,6.7 295.5,16.6 306,16.6 306,6.7 308.4,8.5 311.2,4.5 306.4,0.4 
	"/>
<path class="st10" d="M303.6,0.7c0.1,0,0,0.6,0,0.7c-0.3,1.6-2.2,2.4-3.7,1.9c-1.2-0.4-1.7-1.4-1.9-2.6H303.6z"/>
<polygon class="st11" points="258.6,0.4 253.7,4.5 256.1,8.3 258.6,6.7 258.6,16.6 268.6,16.7 268.6,6.7 270.9,8.5 274,4.3 
	269.5,0.4 "/>
<polygon class="st10" points="258.6,0.4 254,4.5 256.3,8.3 258.6,6.7 258.6,16.7 268.6,16.7 268.6,6.7 270.9,8.5 273.7,4.5 
	269.1,0.4 "/>
<path class="st10" d="M266.7,0.7c0.1,0,0,0.6,0,0.6c-0.3,1.4-2,2.2-3.3,1.7c-1.1-0.4-1.5-1.3-1.7-2.3H266.7z"/>
<g>
	<polygon class="st6" points="38,0 34.3,3.1 36.1,6.1 38,4.8 38,12.5 46.1,12.5 46.1,4.8 48,6.2 50.2,3.1 46.5,0 	"/>
	<path class="st3" d="M44.3,0.1c0,0,0,0.5,0,0.5c-0.2,1.3-1.8,1.9-2.9,1.5c-1-0.3-1.3-1.1-1.5-2.1H44.3z"/>
	<polygon class="st3" points="38,-0.1 34.2,3.1 36.1,6.1 38,4.8 38,12.6 46.2,12.6 46.2,4.8 48,6.2 50.3,3.1 46.5,-0.1 	"/>
	<g>
		<polygon class="st7" points="46.1,2.3 42.4,5.4 44.3,8.4 46.1,7.1 46.1,14.8 54.2,14.8 54.2,7.1 56.1,8.5 58.3,5.4 54.6,2.3 		"/>
		<path class="st3" d="M52.4,2.4c0,0,0,0.5,0,0.5c-0.2,1.3-1.8,1.9-2.9,1.5c-1-0.3-1.3-1.1-1.5-2.1H52.4z"/>
		<polygon class="st3" points="46.4,2.2 42.6,5.4 44.5,8.4 46.4,7.1 46.4,14.9 54.6,14.9 54.6,7.1 56.4,8.5 58.7,5.4 54.9,2.2 		"/>
	</g>
</g>
<rect x="-1.3" y="-60.4" class="st8" width="24.4" height="24.4"/>
<rect x="27.9" y="-60.4" class="st8" width="24.4" height="24.4"/>
<rect x="57.7" y="-60.4" class="st8" width="24.4" height="24.4"/>
<rect x="86.5" y="-60.4" class="st8" width="24.4" height="24.4"/>
<rect x="115.7" y="-60.4" class="st8" width="24.4" height="24.4"/>
<rect x="145.2" y="-60.4" class="st8" width="24.4" height="24.4"/>
<text transform="matrix(1 0 0 1 8.653 -45.1643)" class="st4" style="font-family:'TTFirs-ExtraBold'; font-size:6.812px;">S</text>
<text transform="matrix(1 0 0 1 36.884 -44.4914)" class="st4" style="font-family:'TTFirs-ExtraBold'; font-size:6.812px;">M</text>
<text transform="matrix(1 0 0 1 67.3562 -44.4914)" class="st4" style="font-family:'TTFirs-ExtraBold'; font-size:6.812px;">L</text>
<text transform="matrix(1 0 0 1 94.675 -44.4914)" class="st4" style="font-family:'TTFirs-ExtraBold'; font-size:6.812px;">XL</text>
<text transform="matrix(1 0 0 1 120.8894 -44.4914)" class="st4" style="font-family:'TTFirs-ExtraBold'; font-size:6.812px;">XXL</text>
<text transform="matrix(1 0 0 1 148.2243 -45.0949)" class="st4" style="font-family:'TTFirs-ExtraBold'; font-size:6.812px;">XXXL</text>
<rect x="-30.1" y="-60.4" class="st8" width="24.4" height="24.4"/>
<text transform="matrix(1 0 0 1 -22.9392 -45.1633)" class="st4" style="font-family:'TTFirs-ExtraBold'; font-size:6.812px;">XS</text>
<rect x="358.5" y="-6" class="st12" width="45.3" height="46.1"/>
<rect x="413.3" y="-6" class="st12" width="46.1" height="46.1"/>
<rect x="249.5" y="-5.8" class="st12" width="28.9" height="28.9"/>
<rect x="286.6" y="-5.8" class="st12" width="28.9" height="28.9"/>
<rect x="322.1" y="-5.8" class="st12" width="28.9" height="28.9"/>
<polygon class="st11" points="328.1,0 324.3,3.1 326.2,6.1 328.1,4.8 328.1,12.5 336.2,12.5 336.2,4.8 338,6.2 340.3,3.1 336.5,0 
	"/>
<path class="st10" d="M334.4,0.1c0,0,0,0.5,0,0.5c-0.2,1.3-1.8,1.9-2.9,1.5c-1-0.3-1.3-1.1-1.5-2.1H334.4z"/>
<polygon class="st10" points="328,-0.1 324.2,3.1 326.1,6.1 328,4.8 328,12.6 336.2,12.6 336.2,4.8 338.1,6.2 340.3,3.1 336.6,-0.1 
	"/>
<polygon class="st9" points="336.2,2.3 332.5,5.4 334.3,8.4 336.2,7.1 336.2,14.8 344.3,14.8 344.3,7.1 346.2,8.5 348.4,5.4 
	344.7,2.3 "/>
<path class="st10" d="M342.5,2.4c0,0,0,0.5,0,0.5c-0.2,1.3-1.8,1.9-2.9,1.5c-1-0.3-1.3-1.1-1.5-2.1H342.5z"/>
<polygon class="st10" points="336.4,2.2 332.6,5.4 334.5,8.4 336.4,7.1 336.4,14.9 344.7,14.9 344.7,7.1 346.5,8.5 348.8,5.4 
	345,2.2 "/>
<rect x="288.8" y="-60.4" class="st12" width="24.4" height="24.4"/>
<rect x="318" y="-60.4" class="st12" width="24.4" height="24.4"/>
<rect x="347.8" y="-60.4" class="st12" width="24.4" height="24.4"/>
<rect x="376.6" y="-60.4" class="st12" width="24.4" height="24.4"/>
<rect x="405.8" y="-60.4" class="st12" width="24.4" height="24.4"/>
<rect x="435.3" y="-60.4" class="st12" width="24.4" height="24.4"/>
<text transform="matrix(1 0 0 1 298.7327 -45.1634)" class="st13" style="font-family:'TTFirs-ExtraBold'; font-size:6.812px;">S</text>
<text transform="matrix(1 0 0 1 326.9632 -44.4916)" class="st13" style="font-family:'TTFirs-ExtraBold'; font-size:6.812px;">M</text>
<text transform="matrix(1 0 0 1 357.4358 -44.4916)" class="st13" style="font-family:'TTFirs-ExtraBold'; font-size:6.812px;">L</text>
<text transform="matrix(1 0 0 1 384.7542 -44.4916)" class="st13" style="font-family:'TTFirs-ExtraBold'; font-size:6.812px;">XL</text>
<text transform="matrix(1 0 0 1 410.969 -44.4916)" class="st13" style="font-family:'TTFirs-ExtraBold'; font-size:6.812px;">XXL</text>
<text transform="matrix(1 0 0 1 438.304 -45.0951)" class="st13" style="font-family:'TTFirs-ExtraBold'; font-size:6.812px;">XXXL</text>
<rect x="260" y="-60.4" class="st12" width="24.4" height="24.4"/>
<text transform="matrix(1 0 0 1 267.1399 -45.1634)" class="st13" style="font-family:'TTFirs-ExtraBold'; font-size:6.812px;">XS</text>
<g>
	<path class="st14" d="M-182.1,8.4c-1.3,0-2.4-1.1-2.4-2.4s1.1-2.4,2.4-2.4s2.4,1.1,2.4,2.4S-180.8,8.4-182.1,8.4z M-182.1,4.6
		c-0.8,0-1.4,0.6-1.4,1.4s0.6,1.4,1.4,1.4c0.8,0,1.4-0.6,1.4-1.4S-181.3,4.6-182.1,4.6z"/>
	<path class="st14" d="M-179.7,21.8h-4.7V8.7h4.7V21.8z M-183.4,20.8h2.7V9.7h-2.7V20.8z"/>
	
		<rect x="-182.6" y="7.9" transform="matrix(0.9996 -2.705868e-02 2.705868e-02 0.9996 -0.3009 -4.9236)" class="st14" width="1" height="1.6"/>
	<path class="st14" d="M-177.4,25.8h-9.2l2.3-5.1h4.3L-177.4,25.8z M-185,24.8h6l-1.5-3.1h-3.1L-185,24.8z"/>
	<rect x="-183.8" y="25.3" class="st14" width="1" height="5.3"/>
	<rect x="-181.1" y="25.3" class="st14" width="1" height="5.3"/>
	<path class="st14" d="M-177.9,20.8l-1,0c0.1-4.8,0-10.1-0.2-10.7c-0.3-0.6-1.2-0.4-1.2-0.4l-0.2-1c0.6-0.1,1.9-0.1,2.3,0.9
		C-177.8,10.6-177.9,18.4-177.9,20.8z"/>
	<path class="st14" d="M-186.4,20.8c-0.1-2.4-0.2-10.2,0.4-11.2c0.7-1.2,2.5-0.9,2.7-0.9l-0.2,1c-0.3-0.1-1.4-0.1-1.7,0.4
		c-0.3,0.6-0.4,5.9-0.3,10.7L-186.4,20.8z"/>
	<g>
		<path class="st14" d="M-126.7,8.4c-1.3,0-2.4-1.1-2.4-2.4s1.1-2.4,2.4-2.4c1.3,0,2.4,1.1,2.4,2.4S-125.3,8.4-126.7,8.4z
			 M-126.7,4.6c-0.8,0-1.4,0.6-1.4,1.4s0.6,1.4,1.4,1.4s1.4-0.6,1.4-1.4S-125.9,4.6-126.7,4.6z"/>
		<path class="st14" d="M-123.9,25.8h-5.1V8.7h5.1V25.8z M-128,24.8h3.1V9.7h-3.1V24.8z"/>
		
			<rect x="-127.1" y="7.9" transform="matrix(0.9996 -2.705868e-02 2.705868e-02 0.9996 -0.2806 -3.4235)" class="st14" width="1" height="1.6"/>
		<rect x="-128.3" y="25.3" class="st14" width="1" height="5.3"/>
		<rect x="-125.7" y="25.3" class="st14" width="1" height="5.3"/>
		<path class="st14" d="M-122,20.8l-1,0c0.1-4.8,0-10.1-0.2-10.7c-0.3-0.6-1.2-0.4-1.2-0.4l-0.2-1c0.6-0.1,1.9-0.1,2.3,0.9
			C-121.9,10.6-122,18.4-122,20.8z"/>
		<path class="st14" d="M-131,20.8c-0.1-2.4-0.2-10.2,0.4-11.2c0.7-1.2,2.5-0.9,2.7-0.9l-0.2,1c-0.3-0.1-1.4-0.1-1.7,0.4
			c-0.3,0.6-0.4,5.9-0.3,10.7L-131,20.8z"/>
	</g>
</g>
<g>
	<path class="st13" d="M381,9.1c-1.3,0-2.4-1.1-2.4-2.4s1.1-2.4,2.4-2.4s2.4,1.1,2.4,2.4S382.3,9.1,381,9.1z M381,5.3
		c-0.8,0-1.4,0.6-1.4,1.4s0.6,1.4,1.4,1.4s1.4-0.6,1.4-1.4S381.7,5.3,381,5.3z"/>
	<path class="st13" d="M383.3,22.5h-4.7V9.4h4.7V22.5z M379.6,21.5h2.7V10.4h-2.7V21.5z"/>
	
		<rect x="380.5" y="8.6" transform="matrix(0.9996 -2.705868e-02 2.705868e-02 0.9996 -0.1141 10.3124)" class="st13" width="1" height="1.6"/>
	<path class="st13" d="M385.7,26.5h-9.2l2.3-5.1h4.3L385.7,26.5z M378.1,25.5h6l-1.5-3.1h-3.1L378.1,25.5z"/>
	<rect x="379.3" y="26" class="st13" width="1" height="5.3"/>
	<rect x="381.9" y="26" class="st13" width="1" height="5.3"/>
	<path class="st13" d="M385.1,21.5l-1,0c0.1-4.8,0-10.1-0.2-10.7c-0.3-0.6-1.2-0.4-1.2-0.4l-0.2-1c0.6-0.1,1.9-0.1,2.3,0.9
		C385.3,11.3,385.2,19.1,385.1,21.5z"/>
	<path class="st13" d="M376.6,21.5c-0.1-2.4-0.2-10.2,0.4-11.2c0.7-1.2,2.5-0.9,2.7-0.9l-0.2,1c-0.3-0.1-1.4-0.1-1.7,0.4
		c-0.3,0.6-0.4,5.9-0.3,10.7L376.6,21.5z"/>
	<g>
		<path class="st13" d="M436.4,9.1c-1.3,0-2.4-1.1-2.4-2.4s1.1-2.4,2.4-2.4c1.3,0,2.4,1.1,2.4,2.4S437.7,9.1,436.4,9.1z M436.4,5.3
			c-0.8,0-1.4,0.6-1.4,1.4s0.6,1.4,1.4,1.4s1.4-0.6,1.4-1.4S437.2,5.3,436.4,5.3z"/>
		<path class="st13" d="M439.2,26.5h-5.1V9.4h5.1V26.5z M435.1,25.5h3.1V10.4h-3.1V25.5z"/>
		
			<rect x="435.9" y="8.6" transform="matrix(0.9996 -2.705868e-02 2.705868e-02 0.9996 -9.381701e-02 11.8125)" class="st13" width="1" height="1.6"/>
		<rect x="434.7" y="26" class="st13" width="1" height="5.3"/>
		<rect x="437.4" y="26" class="st13" width="1" height="5.3"/>
		<path class="st13" d="M441,21.5l-1,0c0.1-4.8,0-10.1-0.2-10.7c-0.3-0.6-1.2-0.4-1.2-0.4l-0.2-1c0.6-0.1,1.9-0.1,2.3,0.9
			C441.2,11.3,441.1,19.1,441,21.5z"/>
		<path class="st13" d="M432.1,21.5c-0.1-2.4-0.2-10.2,0.4-11.2c0.7-1.2,2.5-0.9,2.7-0.9l-0.2,1c-0.3-0.1-1.4-0.1-1.7,0.4
			c-0.3,0.6-0.4,5.9-0.3,10.7L432.1,21.5z"/>
	</g>
</g>
<g>
	<path class="st14" d="M90.1,8.4c-1.3,0-2.4-1.1-2.4-2.4s1.1-2.4,2.4-2.4s2.4,1.1,2.4,2.4S91.4,8.4,90.1,8.4z M90.1,4.6
		c-0.8,0-1.4,0.6-1.4,1.4s0.6,1.4,1.4,1.4s1.4-0.6,1.4-1.4S90.8,4.6,90.1,4.6z"/>
	<path class="st14" d="M92.4,21.8h-4.7V8.7h4.7V21.8z M88.7,20.8h2.7V9.7h-2.7V20.8z"/>
	
		<rect x="89.6" y="7.9" transform="matrix(0.9996 -2.705868e-02 2.705868e-02 0.9996 -0.2023 2.4404)" class="st14" width="1" height="1.6"/>
	<path class="st14" d="M94.8,25.9h-9.2l2.3-5.1h4.3L94.8,25.9z M87.2,24.9h6l-1.5-3.1h-3.1L87.2,24.9z"/>
	<rect x="88.4" y="25.4" class="st14" width="1" height="5.3"/>
	<rect x="91" y="25.4" class="st14" width="1" height="5.3"/>
	<path class="st14" d="M94.2,20.8l-1,0c0.1-4.8,0-10.1-0.2-10.7c-0.3-0.6-1.2-0.4-1.2-0.4l-0.2-1c0.6-0.1,1.9-0.1,2.3,0.9
		C94.4,10.7,94.3,18.5,94.2,20.8z"/>
	<path class="st14" d="M85.7,20.8c-0.1-2.4-0.2-10.2,0.4-11.2c0.7-1.2,2.5-0.9,2.7-0.9l-0.2,1c-0.3-0.1-1.4-0.1-1.7,0.4
		c-0.3,0.6-0.4,5.9-0.3,10.7L85.7,20.8z"/>
	<g>
		<path class="st14" d="M145.5,8.4c-1.3,0-2.4-1.1-2.4-2.4s1.1-2.4,2.4-2.4c1.3,0,2.4,1.1,2.4,2.4S146.8,8.4,145.5,8.4z M145.5,4.6
			c-0.8,0-1.4,0.6-1.4,1.4s0.6,1.4,1.4,1.4s1.4-0.6,1.4-1.4S146.3,4.6,145.5,4.6z"/>
		<path class="st14" d="M148.3,25.9h-5.1V8.7h5.1V25.9z M144.2,24.9h3.1V9.7h-3.1V24.9z"/>
		
			<rect x="145" y="7.9" transform="matrix(0.9996 -2.705868e-02 2.705868e-02 0.9996 -0.182 3.9405)" class="st14" width="1" height="1.6"/>
		<rect x="143.8" y="25.4" class="st14" width="1" height="5.3"/>
		<rect x="146.5" y="25.4" class="st14" width="1" height="5.3"/>
		<path class="st14" d="M150.1,20.8l-1,0c0.1-4.8,0-10.1-0.2-10.7c-0.3-0.6-1.2-0.4-1.2-0.4l-0.2-1c0.6-0.1,1.9-0.1,2.3,0.9
			C150.3,10.7,150.2,18.5,150.1,20.8z"/>
		<path class="st14" d="M141.2,20.8c-0.1-2.4-0.2-10.2,0.4-11.2c0.7-1.2,2.5-0.9,2.7-0.9l-0.2,1c-0.3-0.1-1.4-0.1-1.7,0.4
			c-0.3,0.6-0.4,5.9-0.3,10.7L141.2,20.8z"/>
	</g>
</g>
<circle class="st15" cx="-409.4" cy="-4.8" r="1.8"/>
<rect x="-411.1" y="-1.8" class="st15" width="3.5" height="11.5"/>
<line class="st15" x1="-409.4" y1="-3" x2="-409.3" y2="-1.5"/>
<polygon class="st15" points="-407.6,9.7 -405.7,13.5 -410.6,13.5 -412.8,13.5 -411.1,9.7 "/>
<line class="st15" x1="-410.5" y1="18.5" x2="-410.5" y2="13.5"/>
<line class="st15" x1="-408" y1="18.5" x2="-408" y2="13.5"/>
<path class="st15" d="M-407.8-1.8c0,0,1.3-0.3,1.7,0.6c0.4,0.9,0.3,10.4,0.3,10.4"/>
<path class="st15" d="M-410.6-1.8c0,0-1.6-0.3-2.1,0.6c-0.5,0.9-0.3,10.4-0.3,10.4"/>
</svg>
