<?xml version="1.0" encoding="utf-8"?>
<!-- Generator: Adobe Illustrator 19.2.0, SVG Export Plug-In . SVG Version: 6.00 Build 0)  -->
<svg version="1.1" id="Layer_1" xmlns="http://www.w3.org/2000/svg" xmlns:xlink="http://www.w3.org/1999/xlink" x="0px" y="0px"
	 viewBox="0 0 25.8 16" style="enable-background:new 0 0 25.8 16;" xml:space="preserve">
<style type="text/css">
	.st0{fill:none;stroke:#FFFFFF;stroke-width:2;stroke-miterlimit:10;}
	.st1{fill:none;stroke:#E9EBF0;stroke-width:2;stroke-miterlimit:10;}
	.st2{fill:#040D0B;}
	.st3{fill:none;stroke:#FFFFFF;stroke-miterlimit:10;}
	.st4{fill:#FFFFFF;}
	.st5{fill:none;stroke:#000000;stroke-miterlimit:10;}
	.st6{fill:#E4B373;}
	.st7{fill:#84AEA3;}
	.st8{fill:none;stroke:#DB7578;stroke-width:2;stroke-miterlimit:10;}
	.st9{fill:#2B2D2E;}
	.st10{fill:none;stroke:#787A7C;stroke-miterlimit:10;}
	.st11{fill:#B2B2B4;}
	.st12{fill:none;stroke:#77797B;stroke-width:2;stroke-miterlimit:10;}
	.st13{fill:#77797B;}
	.st14{fill:#E9EBF0;}
	.st15{fill:none;stroke:#E9EBF0;stroke-miterlimit:10;}
</style>
<rect x="-238.6" y="-4" class="st0" width="45.3" height="46.1"/>
<rect x="-183.8" y="-4" class="st0" width="46.1" height="46.1"/>
<g>
	<rect x="-347.6" y="-3.8" class="st1" width="28.9" height="28.9"/>
	<rect x="-310.5" y="-3.8" class="st1" width="28.9" height="28.9"/>
	<rect x="-274.9" y="-3.8" class="st1" width="28.9" height="28.9"/>
	<g>
		<polygon class="st2" points="-301.3,2.6 -306,6.6 -303.7,10.3 -301.3,8.7 -301.3,18.4 -291.1,18.4 -291.1,8.7 -288.7,10.5 
			-285.9,6.6 -290.6,2.6 		"/>
		<polygon class="st3" points="-301.5,2.5 -306.3,6.6 -303.9,10.4 -301.5,8.8 -301.5,18.7 -291,18.7 -291,8.8 -288.6,10.6 
			-285.8,6.6 -290.6,2.5 		"/>
		<path class="st3" d="M-293.4,2.7c0.1,0,0,0.6,0,0.7c-0.3,1.6-2.2,2.4-3.7,1.9c-1.2-0.4-1.7-1.4-1.9-2.6H-293.4z"/>
	</g>
	<g>
		<polygon class="st4" points="-338.4,2.5 -343.3,6.6 -340.9,10.4 -338.4,8.8 -338.4,18.7 -328.4,18.7 -328.4,8.7 -326.1,10.6 
			-323,6.4 -327.5,2.5 		"/>
		<polygon class="st5" points="-338.4,2.4 -343,6.6 -340.7,10.4 -338.4,8.7 -338.4,18.7 -328.4,18.7 -328.4,8.7 -326.1,10.6 
			-323.3,6.6 -327.9,2.4 		"/>
		<path class="st5" d="M-330.3,2.8c0.1,0,0,0.6,0,0.6c-0.3,1.4-2,2.2-3.3,1.7c-1.1-0.4-1.5-1.3-1.7-2.3H-330.3z"/>
	</g>
	<g>
		<polygon class="st6" points="-269,2 -272.7,5.1 -270.9,8.1 -269,6.8 -269,14.5 -260.9,14.5 -260.9,6.8 -259,8.2 -256.8,5.1 
			-260.5,2 		"/>
		<path class="st3" d="M-262.7,2.1c0,0,0,0.5,0,0.5c-0.2,1.3-1.8,1.9-2.9,1.5c-1-0.3-1.3-1.1-1.5-2.1H-262.7z"/>
		<polygon class="st3" points="-269,1.9 -272.8,5.1 -270.9,8.1 -269,6.8 -269,14.6 -260.8,14.6 -260.8,6.8 -259,8.2 -256.7,5.1 
			-260.5,1.9 		"/>
		<g>
			<polygon class="st7" points="-260.8,4.3 -264.6,7.4 -262.7,10.4 -260.8,9.1 -260.8,16.8 -252.7,16.8 -252.7,9.1 -250.9,10.5 
				-248.7,7.4 -252.4,4.3 			"/>
			<path class="st3" d="M-254.6,4.4c0,0,0,0.5,0,0.5c-0.2,1.3-1.8,1.9-2.9,1.5c-1-0.3-1.3-1.1-1.5-2.1H-254.6z"/>
			<polygon class="st3" points="-260.6,4.2 -264.4,7.4 -262.5,10.4 -260.6,9.1 -260.6,16.9 -252.4,16.9 -252.4,9.1 -250.6,10.5 
				-248.3,7.4 -252.1,4.2 			"/>
		</g>
	</g>
</g>
<rect x="-308.3" y="-58.4" class="st1" width="24.4" height="24.4"/>
<rect x="-279.1" y="-58.4" class="st1" width="24.4" height="24.4"/>
<rect x="-249.2" y="-58.4" class="st1" width="24.4" height="24.4"/>
<rect x="-220.5" y="-58.4" class="st1" width="24.4" height="24.4"/>
<rect x="-191.3" y="-58.4" class="st1" width="24.4" height="24.4"/>
<rect x="-161.7" y="-58.4" class="st1" width="24.4" height="24.4"/>
<text transform="matrix(1 0 0 1 -298.3354 -43.162)" class="st4" style="font-family:'TTFirs-ExtraBold'; font-size:6.812px;">S</text>
<text transform="matrix(1 0 0 1 -270.1045 -42.4901)" class="st4" style="font-family:'TTFirs-ExtraBold'; font-size:6.812px;">M</text>
<text transform="matrix(1 0 0 1 -239.6324 -42.4901)" class="st4" style="font-family:'TTFirs-ExtraBold'; font-size:6.812px;">L</text>
<text transform="matrix(1 0 0 1 -212.3135 -42.4901)" class="st4" style="font-family:'TTFirs-ExtraBold'; font-size:6.812px;">XL</text>
<text transform="matrix(1 0 0 1 -186.0986 -42.4901)" class="st4" style="font-family:'TTFirs-ExtraBold'; font-size:6.812px;">XXL</text>
<text transform="matrix(1 0 0 1 -158.7637 -43.0936)" class="st4" style="font-family:'TTFirs-ExtraBold'; font-size:6.812px;">XXXL</text>
<rect x="-337.1" y="-58.4" class="st1" width="24.4" height="24.4"/>
<text transform="matrix(1 0 0 1 -329.9277 -43.162)" class="st4" style="font-family:'TTFirs-ExtraBold'; font-size:6.812px;">XS</text>
<rect x="34.9" y="-5.4" class="st8" width="45.3" height="46.1"/>
<rect x="89.7" y="-5.4" class="st8" width="46.1" height="46.1"/>
<rect x="-74.1" y="-5.2" class="st8" width="28.9" height="28.9"/>
<rect x="-37" y="-5.2" class="st8" width="28.9" height="28.9"/>
<rect x="-1.4" y="-5.2" class="st8" width="28.9" height="28.9"/>
<g>
	<polygon class="st2" points="-27.8,1.2 -32.6,5.2 -30.2,8.9 -27.8,7.3 -27.8,17 -17.6,17 -17.6,7.3 -15.2,9.1 -12.4,5.2 -17.1,1.2 
			"/>
	<polygon class="st3" points="-28,1.1 -32.8,5.2 -30.4,9 -28,7.4 -28,17.3 -17.5,17.3 -17.5,7.4 -15.2,9.2 -12.3,5.2 -17.1,1.1 	"/>
	<path class="st3" d="M-19.9,1.3c0.1,0,0,0.6,0,0.7c-0.3,1.6-2.2,2.4-3.7,1.9c-1.2-0.4-1.7-1.4-1.9-2.6H-19.9z"/>
</g>
<g>
	<polygon class="st4" points="-65,1.1 -69.8,5.2 -67.4,9 -65,7.4 -65,17.3 -54.9,17.3 -54.9,7.3 -52.6,9.2 -49.5,5 -54.1,1.1 	"/>
	<polygon class="st5" points="-64.9,1 -69.6,5.2 -67.2,9 -64.9,7.3 -64.9,17.3 -54.9,17.3 -54.9,7.3 -52.6,9.2 -49.9,5.2 -54.5,1 	
		"/>
	<path class="st5" d="M-56.9,1.4c0.1,0,0,0.6,0,0.6c-0.3,1.4-2,2.2-3.3,1.7c-1.1-0.4-1.5-1.3-1.7-2.3H-56.9z"/>
</g>
<polygon class="st9" points="262.2,1.1 257.5,5.1 259.8,8.9 262.2,7.3 262.2,17 272.5,17 272.5,7.3 274.8,9.1 277.6,5.1 272.9,1.1 
	"/>
<polygon class="st10" points="262,1.1 257.2,5.1 259.6,8.9 262,7.3 262,17.2 272.5,17.2 272.5,7.3 274.9,9.1 277.7,5.1 272.9,1.1 
	"/>
<path class="st10" d="M270.1,1.3c0.1,0,0,0.6,0,0.7c-0.3,1.6-2.2,2.4-3.7,1.9c-1.2-0.4-1.7-1.4-1.9-2.6H270.1z"/>
<polygon class="st11" points="225.1,1.1 220.2,5.1 222.6,8.9 225.1,7.3 225.1,17.2 235.1,17.3 235.1,7.3 237.4,9.1 240.5,4.9 
	236,1.1 "/>
<polygon class="st10" points="225.1,1 220.5,5.1 222.8,8.9 225.1,7.3 225.1,17.3 235.1,17.3 235.1,7.3 237.4,9.1 240.2,5.1 235.6,1 
	"/>
<path class="st10" d="M233.2,1.3c0.1,0,0,0.6,0,0.6c-0.3,1.4-2,2.2-3.3,1.7c-1.1-0.4-1.5-1.3-1.7-2.3H233.2z"/>
<g>
	<polygon class="st6" points="4.5,0.6 0.8,3.7 2.6,6.7 4.5,5.4 4.5,13.1 12.6,13.1 12.6,5.4 14.5,6.8 16.7,3.7 13,0.6 	"/>
	<path class="st3" d="M10.8,0.7c0,0,0,0.5,0,0.5C10.5,2.5,9,3.2,7.9,2.8c-1-0.3-1.3-1.1-1.5-2.1H10.8z"/>
	<polygon class="st3" points="4.5,0.5 0.7,3.7 2.6,6.7 4.5,5.4 4.5,13.2 12.7,13.2 12.7,5.4 14.5,6.8 16.8,3.7 13,0.5 	"/>
	<g>
		<polygon class="st7" points="12.6,2.9 8.9,6 10.8,9 12.6,7.7 12.6,15.4 20.7,15.4 20.7,7.7 22.6,9.1 24.8,6 21.1,2.9 		"/>
		<path class="st3" d="M18.9,3c0,0,0,0.5,0,0.5c-0.2,1.3-1.8,1.9-2.9,1.5c-1-0.3-1.3-1.1-1.5-2.1H18.9z"/>
		<polygon class="st3" points="12.9,2.8 9.1,6 11,9 12.9,7.7 12.9,15.5 21.1,15.5 21.1,7.7 22.9,9.1 25.2,6 21.4,2.8 		"/>
	</g>
</g>
<rect x="-34.8" y="-59.7" class="st8" width="24.4" height="24.4"/>
<rect x="-5.6" y="-59.7" class="st8" width="24.4" height="24.4"/>
<rect x="24.2" y="-59.7" class="st8" width="24.4" height="24.4"/>
<rect x="53" y="-59.7" class="st8" width="24.4" height="24.4"/>
<rect x="82.2" y="-59.7" class="st8" width="24.4" height="24.4"/>
<rect x="111.7" y="-59.7" class="st8" width="24.4" height="24.4"/>
<text transform="matrix(1 0 0 1 -24.8479 -44.5533)" class="st4" style="font-family:'TTFirs-ExtraBold'; font-size:6.812px;">S</text>
<text transform="matrix(1 0 0 1 3.383 -43.8804)" class="st4" style="font-family:'TTFirs-ExtraBold'; font-size:6.812px;">M</text>
<text transform="matrix(1 0 0 1 33.8552 -43.8804)" class="st4" style="font-family:'TTFirs-ExtraBold'; font-size:6.812px;">L</text>
<text transform="matrix(1 0 0 1 61.1741 -43.8804)" class="st4" style="font-family:'TTFirs-ExtraBold'; font-size:6.812px;">XL</text>
<text transform="matrix(1 0 0 1 87.3884 -43.8804)" class="st4" style="font-family:'TTFirs-ExtraBold'; font-size:6.812px;">XXL</text>
<text transform="matrix(1 0 0 1 114.7234 -44.4839)" class="st4" style="font-family:'TTFirs-ExtraBold'; font-size:6.812px;">XXXL</text>
<rect x="-63.6" y="-59.7" class="st8" width="24.4" height="24.4"/>
<text transform="matrix(1 0 0 1 -56.4402 -44.5523)" class="st4" style="font-family:'TTFirs-ExtraBold'; font-size:6.812px;">XS</text>
<rect x="325" y="-5.4" class="st12" width="45.3" height="46.1"/>
<rect x="379.8" y="-5.4" class="st12" width="46.1" height="46.1"/>
<rect x="216" y="-5.2" class="st12" width="28.9" height="28.9"/>
<rect x="253.1" y="-5.2" class="st12" width="28.9" height="28.9"/>
<rect x="288.6" y="-5.2" class="st12" width="28.9" height="28.9"/>
<polygon class="st11" points="294.6,0.6 290.8,3.7 292.7,6.7 294.6,5.4 294.6,13.1 302.7,13.1 302.7,5.4 304.5,6.8 306.7,3.7 
	303,0.6 "/>
<path class="st10" d="M300.9,0.7c0,0,0,0.5,0,0.5c-0.2,1.3-1.8,1.9-2.9,1.5c-1-0.3-1.3-1.1-1.5-2.1H300.9z"/>
<polygon class="st10" points="294.5,0.5 290.7,3.7 292.6,6.7 294.5,5.4 294.5,13.2 302.7,13.2 302.7,5.4 304.6,6.8 306.8,3.7 
	303.1,0.5 "/>
<polygon class="st9" points="302.7,2.9 299,6 300.8,9 302.7,7.7 302.7,15.4 310.8,15.4 310.8,7.7 312.7,9.1 314.9,6 311.2,2.9 "/>
<path class="st10" d="M309,3c0,0,0,0.5,0,0.5c-0.2,1.3-1.8,1.9-2.9,1.5c-1-0.3-1.3-1.1-1.5-2.1H309z"/>
<polygon class="st10" points="302.9,2.8 299.1,6 301,9 302.9,7.7 302.9,15.5 311.2,15.5 311.2,7.7 313,9.1 315.3,6 311.5,2.8 "/>
<rect x="255.3" y="-59.7" class="st12" width="24.4" height="24.4"/>
<rect x="284.5" y="-59.7" class="st12" width="24.4" height="24.4"/>
<rect x="314.3" y="-59.7" class="st12" width="24.4" height="24.4"/>
<rect x="343.1" y="-59.7" class="st12" width="24.4" height="24.4"/>
<rect x="372.3" y="-59.7" class="st12" width="24.4" height="24.4"/>
<rect x="401.8" y="-59.7" class="st12" width="24.4" height="24.4"/>
<text transform="matrix(1 0 0 1 265.2318 -44.5524)" class="st13" style="font-family:'TTFirs-ExtraBold'; font-size:6.812px;">S</text>
<text transform="matrix(1 0 0 1 293.4622 -43.8806)" class="st13" style="font-family:'TTFirs-ExtraBold'; font-size:6.812px;">M</text>
<text transform="matrix(1 0 0 1 323.9349 -43.8806)" class="st13" style="font-family:'TTFirs-ExtraBold'; font-size:6.812px;">L</text>
<text transform="matrix(1 0 0 1 351.2532 -43.8806)" class="st13" style="font-family:'TTFirs-ExtraBold'; font-size:6.812px;">XL</text>
<text transform="matrix(1 0 0 1 377.4681 -43.8806)" class="st13" style="font-family:'TTFirs-ExtraBold'; font-size:6.812px;">XXL</text>
<text transform="matrix(1 0 0 1 404.803 -44.4841)" class="st13" style="font-family:'TTFirs-ExtraBold'; font-size:6.812px;">XXXL</text>
<rect x="226.5" y="-59.7" class="st12" width="24.4" height="24.4"/>
<text transform="matrix(1 0 0 1 233.639 -44.5524)" class="st13" style="font-family:'TTFirs-ExtraBold'; font-size:6.812px;">XS</text>
<g>
	<path class="st14" d="M-215.6,9c-1.3,0-2.4-1.1-2.4-2.4s1.1-2.4,2.4-2.4s2.4,1.1,2.4,2.4S-214.3,9-215.6,9z M-215.6,5.2
		c-0.8,0-1.4,0.6-1.4,1.4s0.6,1.4,1.4,1.4s1.4-0.6,1.4-1.4S-214.8,5.2-215.6,5.2z"/>
	<path class="st14" d="M-213.2,22.4h-4.7V9.3h4.7V22.4z M-216.9,21.4h2.7V10.3h-2.7V21.4z"/>
	
		<rect x="-216.1" y="8.5" transform="matrix(0.9996 -2.705868e-02 2.705868e-02 0.9996 -0.3297 -5.8299)" class="st14" width="1" height="1.6"/>
	<path class="st14" d="M-210.9,26.4h-9.2l2.3-5.1h4.3L-210.9,26.4z M-218.5,25.4h6l-1.5-3.1h-3.1L-218.5,25.4z"/>
	<rect x="-217.3" y="25.9" class="st14" width="1" height="5.3"/>
	<rect x="-214.6" y="25.9" class="st14" width="1" height="5.3"/>
	<path class="st14" d="M-211.4,21.4l-1,0c0.1-4.8,0-10.1-0.2-10.7c-0.3-0.6-1.2-0.4-1.2-0.4l-0.2-1c0.6-0.1,1.9-0.1,2.3,0.9
		C-211.3,11.2-211.4,19-211.4,21.4z"/>
	<path class="st14" d="M-219.9,21.4c-0.1-2.4-0.2-10.2,0.4-11.2c0.7-1.2,2.5-0.9,2.7-0.9l-0.2,1c-0.3-0.1-1.4-0.1-1.7,0.4
		c-0.3,0.6-0.4,5.9-0.3,10.7L-219.9,21.4z"/>
	<g>
		<path class="st14" d="M-160.2,9c-1.3,0-2.4-1.1-2.4-2.4s1.1-2.4,2.4-2.4c1.3,0,2.4,1.1,2.4,2.4S-158.8,9-160.2,9z M-160.2,5.2
			c-0.8,0-1.4,0.6-1.4,1.4s0.6,1.4,1.4,1.4s1.4-0.6,1.4-1.4S-159.4,5.2-160.2,5.2z"/>
		<path class="st14" d="M-157.4,26.4h-5.1V9.3h5.1V26.4z M-161.5,25.4h3.1V10.3h-3.1V25.4z"/>
		
			<rect x="-160.6" y="8.5" transform="matrix(0.9996 -2.705868e-02 2.705868e-02 0.9996 -0.3094 -4.3298)" class="st14" width="1" height="1.6"/>
		<rect x="-161.8" y="25.9" class="st14" width="1" height="5.3"/>
		<rect x="-159.2" y="25.9" class="st14" width="1" height="5.3"/>
		<path class="st14" d="M-155.5,21.4l-1,0c0.1-4.8,0-10.1-0.2-10.7c-0.3-0.6-1.2-0.4-1.2-0.4l-0.2-1c0.6-0.1,1.9-0.1,2.3,0.9
			C-155.4,11.2-155.5,19-155.5,21.4z"/>
		<path class="st14" d="M-164.5,21.4c-0.1-2.4-0.2-10.2,0.4-11.2c0.7-1.2,2.5-0.9,2.7-0.9l-0.2,1c-0.3-0.1-1.4-0.1-1.7,0.4
			c-0.3,0.6-0.4,5.9-0.3,10.7L-164.5,21.4z"/>
	</g>
</g>
<g>
	<path class="st13" d="M347.5,9.7c-1.3,0-2.4-1.1-2.4-2.4s1.1-2.4,2.4-2.4s2.4,1.1,2.4,2.4S348.8,9.7,347.5,9.7z M347.5,5.9
		c-0.8,0-1.4,0.6-1.4,1.4s0.6,1.4,1.4,1.4s1.4-0.6,1.4-1.4S348.2,5.9,347.5,5.9z"/>
	<path class="st13" d="M349.8,23.1h-4.7V10h4.7V23.1z M346.1,22.1h2.7V11h-2.7V22.1z"/>
	
		<rect x="347" y="9.2" transform="matrix(0.9996 -2.705868e-02 2.705868e-02 0.9996 -0.1429 9.4061)" class="st13" width="1" height="1.6"/>
	<path class="st13" d="M352.2,27.1H343l2.3-5.1h4.3L352.2,27.1z M344.6,26.1h6l-1.5-3.1H346L344.6,26.1z"/>
	<rect x="345.8" y="26.6" class="st13" width="1" height="5.3"/>
	<rect x="348.4" y="26.6" class="st13" width="1" height="5.3"/>
	<path class="st13" d="M351.6,22.1l-1,0c0.1-4.8,0-10.1-0.2-10.7c-0.3-0.6-1.2-0.4-1.2-0.4l-0.2-1c0.6-0.1,1.9-0.1,2.3,0.9
		C351.8,11.9,351.7,19.7,351.6,22.1z"/>
	<path class="st13" d="M343.1,22.1c-0.1-2.4-0.2-10.2,0.4-11.2c0.7-1.2,2.5-0.9,2.7-0.9l-0.2,1c-0.3-0.1-1.4-0.1-1.7,0.4
		c-0.3,0.6-0.4,5.9-0.3,10.7L343.1,22.1z"/>
	<g>
		<path class="st13" d="M402.9,9.7c-1.3,0-2.4-1.1-2.4-2.4s1.1-2.4,2.4-2.4c1.3,0,2.4,1.1,2.4,2.4S404.2,9.7,402.9,9.7z M402.9,5.9
			c-0.8,0-1.4,0.6-1.4,1.4s0.6,1.4,1.4,1.4s1.4-0.6,1.4-1.4S403.7,5.9,402.9,5.9z"/>
		<path class="st13" d="M405.7,27.1h-5.1V10h5.1V27.1z M401.6,26.1h3.1V11h-3.1V26.1z"/>
		
			<rect x="402.4" y="9.2" transform="matrix(0.9996 -2.705868e-02 2.705868e-02 0.9996 -0.1226 10.9062)" class="st13" width="1" height="1.6"/>
		<rect x="401.2" y="26.6" class="st13" width="1" height="5.3"/>
		<rect x="403.9" y="26.6" class="st13" width="1" height="5.3"/>
		<path class="st13" d="M407.5,22.1l-1,0c0.1-4.8,0-10.1-0.2-10.7c-0.3-0.6-1.2-0.4-1.2-0.4l-0.2-1c0.6-0.1,1.9-0.1,2.3,0.9
			C407.7,11.9,407.6,19.7,407.5,22.1z"/>
		<path class="st13" d="M398.6,22.1c-0.1-2.4-0.2-10.2,0.4-11.2c0.7-1.2,2.5-0.9,2.7-0.9l-0.2,1c-0.3-0.1-1.4-0.1-1.7,0.4
			c-0.3,0.6-0.4,5.9-0.3,10.7L398.6,22.1z"/>
	</g>
</g>
<g>
	<path class="st14" d="M56.5,9c-1.3,0-2.4-1.1-2.4-2.4s1.1-2.4,2.4-2.4s2.4,1.1,2.4,2.4S57.9,9,56.5,9z M56.5,5.2
		c-0.8,0-1.4,0.6-1.4,1.4S55.8,8,56.5,8s1.4-0.6,1.4-1.4S57.3,5.2,56.5,5.2z"/>
	<path class="st14" d="M58.9,22.4h-4.7V9.3h4.7V22.4z M55.2,21.4h2.7V10.3h-2.7V21.4z"/>
	
		<rect x="56.1" y="8.5" transform="matrix(0.9996 -2.705868e-02 2.705868e-02 0.9996 -0.2311 1.5341)" class="st14" width="1" height="1.6"/>
	<path class="st14" d="M61.3,26.5h-9.2l2.3-5.1h4.3L61.3,26.5z M53.7,25.5h6l-1.5-3.1h-3.1L53.7,25.5z"/>
	<rect x="54.9" y="26" class="st14" width="1" height="5.3"/>
	<rect x="57.5" y="26" class="st14" width="1" height="5.3"/>
	<path class="st14" d="M60.7,21.4l-1,0c0.1-4.8,0-10.1-0.2-10.7c-0.3-0.6-1.2-0.4-1.2-0.4l-0.2-1c0.6-0.1,1.9-0.1,2.3,0.9
		C60.9,11.3,60.8,19.1,60.7,21.4z"/>
	<path class="st14" d="M52.2,21.4c-0.1-2.4-0.2-10.2,0.4-11.2c0.7-1.2,2.5-0.9,2.7-0.9l-0.2,1c-0.3-0.1-1.4-0.1-1.7,0.4
		c-0.3,0.6-0.4,5.9-0.3,10.7L52.2,21.4z"/>
	<g>
		<path class="st14" d="M112,9c-1.3,0-2.4-1.1-2.4-2.4s1.1-2.4,2.4-2.4c1.3,0,2.4,1.1,2.4,2.4S113.3,9,112,9z M112,5.2
			c-0.8,0-1.4,0.6-1.4,1.4S111.2,8,112,8s1.4-0.6,1.4-1.4S112.8,5.2,112,5.2z"/>
		<path class="st14" d="M114.8,26.5h-5.1V9.3h5.1V26.5z M110.7,25.5h3.1V10.3h-3.1V25.5z"/>
		
			<rect x="111.5" y="8.5" transform="matrix(0.9996 -2.705868e-02 2.705868e-02 0.9996 -0.2108 3.0342)" class="st14" width="1" height="1.6"/>
		<rect x="110.3" y="26" class="st14" width="1" height="5.3"/>
		<rect x="113" y="26" class="st14" width="1" height="5.3"/>
		<path class="st14" d="M116.6,21.4l-1,0c0.1-4.8,0-10.1-0.2-10.7c-0.3-0.6-1.2-0.4-1.2-0.4l-0.2-1c0.6-0.1,1.9-0.1,2.3,0.9
			C116.8,11.3,116.7,19.1,116.6,21.4z"/>
		<path class="st14" d="M107.7,21.4c-0.1-2.4-0.2-10.2,0.4-11.2c0.7-1.2,2.5-0.9,2.7-0.9l-0.2,1c-0.3-0.1-1.4-0.1-1.7,0.4
			c-0.3,0.6-0.4,5.9-0.3,10.7L107.7,21.4z"/>
	</g>
</g>
<circle class="st15" cx="-442.9" cy="-4.2" r="1.8"/>
<rect x="-444.6" y="-1.2" class="st15" width="3.5" height="11.5"/>
<line class="st15" x1="-442.9" y1="-2.4" x2="-442.8" y2="-0.9"/>
<polygon class="st15" points="-441.1,10.3 -439.2,14.1 -444.1,14.1 -446.3,14.1 -444.6,10.3 "/>
<line class="st15" x1="-444" y1="19.1" x2="-444" y2="14.1"/>
<line class="st15" x1="-441.5" y1="19.1" x2="-441.5" y2="14.1"/>
<path class="st15" d="M-441.3-1.2c0,0,1.3-0.3,1.7,0.6c0.4,0.9,0.3,10.4,0.3,10.4"/>
<path class="st15" d="M-444.1-1.2c0,0-1.6-0.3-2.1,0.6c-0.5,0.9-0.3,10.4-0.3,10.4"/>
</svg>
