<?xml version="1.0" encoding="utf-8"?>
<!-- Generator: Adobe Illustrator 19.2.0, SVG Export Plug-In . SVG Version: 6.00 Build 0)  -->
<svg version="1.1" id="Layer_1" xmlns="http://www.w3.org/2000/svg" xmlns:xlink="http://www.w3.org/1999/xlink" x="0px" y="0px"
	 viewBox="0 0 9 27" style="enable-background:new 0 0 9 27;" xml:space="preserve">
<style type="text/css">
	.st0{fill:none;stroke:#FFFFFF;stroke-width:2;stroke-miterlimit:10;}
	.st1{fill:none;stroke:#E9EBF0;stroke-width:2;stroke-miterlimit:10;}
	.st2{fill:#040D0B;}
	.st3{fill:none;stroke:#FFFFFF;stroke-miterlimit:10;}
	.st4{fill:#FFFFFF;}
	.st5{fill:none;stroke:#000000;stroke-miterlimit:10;}
	.st6{fill:#E4B373;}
	.st7{fill:#84AEA3;}
	.st8{fill:none;stroke:#DB7578;stroke-width:2;stroke-miterlimit:10;}
	.st9{fill:#2B2D2E;}
	.st10{fill:none;stroke:#787A7C;stroke-miterlimit:10;}
	.st11{fill:#B2B2B4;}
	.st12{fill:none;stroke:#77797B;stroke-width:2;stroke-miterlimit:10;}
	.st13{fill:#77797B;}
	.st14{fill:#E9EBF0;}
	.st15{fill:none;stroke:#E9EBF0;stroke-miterlimit:10;}
</style>
<rect x="-346.2" y="-8.2" class="st0" width="45.3" height="46.1"/>
<rect x="-291.4" y="-8.2" class="st0" width="46.1" height="46.1"/>
<g>
	<rect x="-455.2" y="-8.1" class="st1" width="28.9" height="28.9"/>
	<rect x="-418.1" y="-8.1" class="st1" width="28.9" height="28.9"/>
	<rect x="-382.5" y="-8.1" class="st1" width="28.9" height="28.9"/>
	<g>
		<polygon class="st2" points="-408.9,-1.7 -413.6,2.4 -411.3,6.1 -408.9,4.5 -408.9,14.2 -398.7,14.2 -398.7,4.5 -396.3,6.3 
			-393.5,2.4 -398.2,-1.7 		"/>
		<polygon class="st3" points="-409.1,-1.7 -413.9,2.4 -411.5,6.2 -409.1,4.5 -409.1,14.4 -398.6,14.4 -398.6,4.5 -396.2,6.3 
			-393.4,2.4 -398.2,-1.7 		"/>
		<path class="st3" d="M-401-1.5c0.1,0,0,0.6,0,0.7c-0.3,1.6-2.2,2.4-3.7,1.9c-1.2-0.4-1.7-1.4-1.9-2.6H-401z"/>
	</g>
	<g>
		<polygon class="st4" points="-446,-1.7 -450.9,2.4 -448.5,6.2 -446,4.5 -446,14.4 -436,14.5 -436,4.5 -433.7,6.3 -430.6,2.1 
			-435.1,-1.7 		"/>
		<polygon class="st5" points="-446,-1.8 -450.6,2.3 -448.3,6.2 -446,4.5 -446,14.5 -436,14.5 -436,4.5 -433.7,6.3 -430.9,2.3 
			-435.5,-1.8 		"/>
		<path class="st5" d="M-437.9-1.5c0.1,0,0,0.6,0,0.6c-0.3,1.4-2,2.2-3.3,1.7c-1.1-0.4-1.5-1.3-1.7-2.3H-437.9z"/>
	</g>
	<g>
		<polygon class="st6" points="-376.6,-2.3 -380.3,0.9 -378.5,3.8 -376.6,2.6 -376.6,10.3 -368.5,10.3 -368.5,2.6 -366.6,4 
			-364.4,0.9 -368.1,-2.3 		"/>
		<path class="st3" d="M-370.3-2.2c0,0,0,0.5,0,0.5c-0.2,1.3-1.8,1.9-2.9,1.5c-1-0.3-1.3-1.1-1.5-2.1H-370.3z"/>
		<polygon class="st3" points="-376.6,-2.3 -380.4,0.9 -378.5,3.8 -376.6,2.6 -376.6,10.3 -368.4,10.3 -368.4,2.6 -366.6,4 
			-364.3,0.9 -368.1,-2.3 		"/>
		<g>
			<polygon class="st7" points="-368.4,0 -372.2,3.2 -370.3,6.1 -368.4,4.9 -368.4,12.5 -360.3,12.5 -360.3,4.9 -358.5,6.3 
				-356.3,3.2 -360,0 			"/>
			<path class="st3" d="M-362.2,0.1c0,0,0,0.5,0,0.5c-0.2,1.3-1.8,1.9-2.9,1.5c-1-0.3-1.3-1.1-1.5-2.1H-362.2z"/>
			<polygon class="st3" points="-368.2,-0.1 -372,3.2 -370.1,6.1 -368.2,4.9 -368.2,12.6 -360,12.6 -360,4.9 -358.2,6.3 -355.9,3.2 
				-359.7,-0.1 			"/>
		</g>
	</g>
</g>
<rect x="-415.9" y="-62.6" class="st1" width="24.4" height="24.4"/>
<rect x="-386.7" y="-62.6" class="st1" width="24.4" height="24.4"/>
<rect x="-356.8" y="-62.6" class="st1" width="24.4" height="24.4"/>
<rect x="-328.1" y="-62.6" class="st1" width="24.4" height="24.4"/>
<rect x="-298.9" y="-62.6" class="st1" width="24.4" height="24.4"/>
<rect x="-269.3" y="-62.6" class="st1" width="24.4" height="24.4"/>
<text transform="matrix(1 0 0 1 -405.9345 -47.4019)" class="st4" style="font-family:'TTFirs-ExtraBold'; font-size:6.812px;">S</text>
<text transform="matrix(1 0 0 1 -377.7036 -46.73)" class="st4" style="font-family:'TTFirs-ExtraBold'; font-size:6.812px;">M</text>
<text transform="matrix(1 0 0 1 -347.2314 -46.73)" class="st4" style="font-family:'TTFirs-ExtraBold'; font-size:6.812px;">L</text>
<text transform="matrix(1 0 0 1 -319.9126 -46.73)" class="st4" style="font-family:'TTFirs-ExtraBold'; font-size:6.812px;">XL</text>
<text transform="matrix(1 0 0 1 -293.6977 -46.73)" class="st4" style="font-family:'TTFirs-ExtraBold'; font-size:6.812px;">XXL</text>
<text transform="matrix(1 0 0 1 -266.3627 -47.3335)" class="st4" style="font-family:'TTFirs-ExtraBold'; font-size:6.812px;">XXXL</text>
<rect x="-444.7" y="-62.6" class="st1" width="24.4" height="24.4"/>
<text transform="matrix(1 0 0 1 -437.5268 -47.4019)" class="st4" style="font-family:'TTFirs-ExtraBold'; font-size:6.812px;">XS</text>
<rect x="-72.7" y="-9.6" class="st8" width="45.3" height="46.1"/>
<rect x="-17.9" y="-9.6" class="st8" width="46.1" height="46.1"/>
<rect x="-181.7" y="-9.5" class="st8" width="28.9" height="28.9"/>
<rect x="-144.6" y="-9.5" class="st8" width="28.9" height="28.9"/>
<rect x="-109" y="-9.5" class="st8" width="28.9" height="28.9"/>
<g>
	<polygon class="st2" points="-135.4,-3 -140.2,1 -137.8,4.7 -135.4,3.1 -135.4,12.8 -125.2,12.8 -125.2,3.1 -122.8,4.9 -120,1 
		-124.7,-3 	"/>
	<polygon class="st3" points="-135.6,-3.1 -140.4,1 -138,4.8 -135.6,3.1 -135.6,13 -125.1,13 -125.1,3.1 -122.8,5 -119.9,1 
		-124.7,-3.1 	"/>
	<path class="st3" d="M-127.5-2.9c0.1,0,0,0.6,0,0.7c-0.3,1.6-2.2,2.4-3.7,1.9c-1.2-0.4-1.7-1.4-1.9-2.6H-127.5z"/>
</g>
<g>
	<polygon class="st4" points="-172.6,-3.1 -177.4,1 -175,4.8 -172.6,3.1 -172.6,13 -162.5,13.1 -162.5,3.1 -160.2,5 -157.1,0.7 
		-161.7,-3.1 	"/>
	<polygon class="st5" points="-172.5,-3.2 -177.2,0.9 -174.8,4.8 -172.5,3.1 -172.5,13.1 -162.5,13.1 -162.5,3.1 -160.2,5 
		-157.5,0.9 -162.1,-3.2 	"/>
	<path class="st5" d="M-164.5-2.9c0.1,0,0,0.6,0,0.6c-0.3,1.4-2,2.2-3.3,1.7c-1.1-0.4-1.5-1.3-1.7-2.3H-164.5z"/>
</g>
<polygon class="st9" points="154.6,-3.1 149.9,0.9 152.2,4.6 154.6,3 154.6,12.7 164.9,12.7 164.9,3 167.2,4.8 170,0.9 165.3,-3.1 
	"/>
<polygon class="st10" points="154.4,-3.2 149.6,0.9 152,4.7 154.4,3.1 154.4,13 164.9,13 164.9,3.1 167.3,4.9 170.1,0.9 165.3,-3.2 
	"/>
<path class="st10" d="M162.5-3c0.1,0,0,0.6,0,0.7c-0.3,1.6-2.2,2.4-3.7,1.9c-1.2-0.4-1.7-1.4-1.9-2.6H162.5z"/>
<polygon class="st11" points="117.5,-3.2 112.6,0.9 115,4.7 117.5,3.1 117.5,13 127.5,13 127.5,3 129.8,4.9 132.9,0.7 128.4,-3.2 
	"/>
<polygon class="st10" points="117.5,-3.3 112.9,0.9 115.2,4.7 117.5,3 117.5,13 127.5,13 127.5,3 129.8,4.9 132.6,0.9 128,-3.3 "/>
<path class="st10" d="M125.6-2.9c0.1,0,0,0.6,0,0.6c-0.3,1.4-2,2.2-3.3,1.7c-1.1-0.4-1.5-1.3-1.7-2.3H125.6z"/>
<g>
	<polygon class="st6" points="-103.1,-3.7 -106.8,-0.5 -105,2.5 -103.1,1.2 -103.1,8.9 -95,8.9 -95,1.2 -93.1,2.6 -90.9,-0.5 
		-94.6,-3.7 	"/>
	<path class="st3" d="M-96.8-3.5c0,0,0,0.5,0,0.5c-0.2,1.3-1.8,1.9-2.9,1.5c-1-0.3-1.3-1.1-1.5-2.1H-96.8z"/>
	<polygon class="st3" points="-103.1,-3.7 -106.9,-0.5 -105,2.5 -103.1,1.2 -103.1,8.9 -94.9,8.9 -94.9,1.2 -93.1,2.6 -90.8,-0.5 
		-94.6,-3.7 	"/>
	<g>
		<polygon class="st7" points="-95,-1.4 -98.7,1.8 -96.8,4.7 -95,3.5 -95,11.2 -86.9,11.2 -86.9,3.5 -85,4.9 -82.8,1.8 -86.5,-1.4 
					"/>
		<path class="st3" d="M-88.7-1.2c0,0,0,0.5,0,0.5c-0.2,1.3-1.8,1.9-2.9,1.5c-1-0.3-1.3-1.1-1.5-2.1H-88.7z"/>
		<polygon class="st3" points="-94.7,-1.4 -98.5,1.8 -96.6,4.7 -94.7,3.5 -94.7,11.2 -86.5,11.2 -86.5,3.5 -84.7,4.9 -82.4,1.8 
			-86.2,-1.4 		"/>
	</g>
</g>
<rect x="-142.4" y="-64" class="st8" width="24.4" height="24.4"/>
<rect x="-113.2" y="-64" class="st8" width="24.4" height="24.4"/>
<rect x="-83.4" y="-64" class="st8" width="24.4" height="24.4"/>
<rect x="-54.6" y="-64" class="st8" width="24.4" height="24.4"/>
<rect x="-25.4" y="-64" class="st8" width="24.4" height="24.4"/>
<rect x="4.1" y="-64" class="st8" width="24.4" height="24.4"/>
<text transform="matrix(1 0 0 1 -132.447 -48.7932)" class="st4" style="font-family:'TTFirs-ExtraBold'; font-size:6.812px;">S</text>
<text transform="matrix(1 0 0 1 -104.216 -48.1203)" class="st4" style="font-family:'TTFirs-ExtraBold'; font-size:6.812px;">M</text>
<text transform="matrix(1 0 0 1 -73.7438 -48.1203)" class="st4" style="font-family:'TTFirs-ExtraBold'; font-size:6.812px;">L</text>
<text transform="matrix(1 0 0 1 -46.425 -48.1203)" class="st4" style="font-family:'TTFirs-ExtraBold'; font-size:6.812px;">XL</text>
<text transform="matrix(1 0 0 1 -20.2106 -48.1203)" class="st4" style="font-family:'TTFirs-ExtraBold'; font-size:6.812px;">XXL</text>
<text transform="matrix(1 0 0 1 7.1243 -48.7238)" class="st4" style="font-family:'TTFirs-ExtraBold'; font-size:6.812px;">XXXL</text>
<rect x="-171.2" y="-64" class="st8" width="24.4" height="24.4"/>
<text transform="matrix(1 0 0 1 -164.0392 -48.7922)" class="st4" style="font-family:'TTFirs-ExtraBold'; font-size:6.812px;">XS</text>
<rect x="217.4" y="-9.6" class="st12" width="45.3" height="46.1"/>
<rect x="272.2" y="-9.6" class="st12" width="46.1" height="46.1"/>
<rect x="108.4" y="-9.5" class="st12" width="28.9" height="28.9"/>
<rect x="145.5" y="-9.5" class="st12" width="28.9" height="28.9"/>
<rect x="181" y="-9.5" class="st12" width="28.9" height="28.9"/>
<polygon class="st11" points="187,-3.7 183.2,-0.5 185.1,2.5 187,1.2 187,8.9 195.1,8.9 195.1,1.2 196.9,2.6 199.2,-0.5 195.4,-3.7 
	"/>
<path class="st10" d="M193.3-3.5c0,0,0,0.5,0,0.5c-0.2,1.3-1.8,1.9-2.9,1.5c-1-0.3-1.3-1.1-1.5-2.1H193.3z"/>
<polygon class="st10" points="186.9,-3.7 183.1,-0.5 185,2.5 186.9,1.2 186.9,8.9 195.1,8.9 195.1,1.2 197,2.6 199.2,-0.5 
	195.5,-3.7 "/>
<polygon class="st9" points="195.1,-1.4 191.4,1.8 193.2,4.7 195.1,3.5 195.1,11.2 203.2,11.2 203.2,3.5 205.1,4.9 207.3,1.8 
	203.6,-1.4 "/>
<path class="st10" d="M201.4-1.2c0,0,0,0.5,0,0.5c-0.2,1.3-1.8,1.9-2.9,1.5c-1-0.3-1.3-1.1-1.5-2.1H201.4z"/>
<polygon class="st10" points="195.3,-1.4 191.5,1.8 193.4,4.7 195.3,3.5 195.3,11.2 203.6,11.2 203.6,3.5 205.4,4.9 207.7,1.8 
	203.9,-1.4 "/>
<rect x="147.7" y="-64" class="st12" width="24.4" height="24.4"/>
<rect x="176.9" y="-64" class="st12" width="24.4" height="24.4"/>
<rect x="206.7" y="-64" class="st12" width="24.4" height="24.4"/>
<rect x="235.5" y="-64" class="st12" width="24.4" height="24.4"/>
<rect x="264.7" y="-64" class="st12" width="24.4" height="24.4"/>
<rect x="294.2" y="-64" class="st12" width="24.4" height="24.4"/>
<text transform="matrix(1 0 0 1 157.6327 -48.7923)" class="st13" style="font-family:'TTFirs-ExtraBold'; font-size:6.812px;">S</text>
<text transform="matrix(1 0 0 1 185.8632 -48.1205)" class="st13" style="font-family:'TTFirs-ExtraBold'; font-size:6.812px;">M</text>
<text transform="matrix(1 0 0 1 216.3358 -48.1205)" class="st13" style="font-family:'TTFirs-ExtraBold'; font-size:6.812px;">L</text>
<text transform="matrix(1 0 0 1 243.6542 -48.1205)" class="st13" style="font-family:'TTFirs-ExtraBold'; font-size:6.812px;">XL</text>
<text transform="matrix(1 0 0 1 269.869 -48.1205)" class="st13" style="font-family:'TTFirs-ExtraBold'; font-size:6.812px;">XXL</text>
<text transform="matrix(1 0 0 1 297.204 -48.724)" class="st13" style="font-family:'TTFirs-ExtraBold'; font-size:6.812px;">XXXL</text>
<rect x="118.9" y="-64" class="st12" width="24.4" height="24.4"/>
<text transform="matrix(1 0 0 1 126.0399 -48.7923)" class="st13" style="font-family:'TTFirs-ExtraBold'; font-size:6.812px;">XS</text>
<g>
	<path class="st14" d="M-323.2,4.7c-1.3,0-2.4-1.1-2.4-2.4s1.1-2.4,2.4-2.4s2.4,1.1,2.4,2.4S-321.9,4.7-323.2,4.7z M-323.2,1
		c-0.8,0-1.4,0.6-1.4,1.4s0.6,1.4,1.4,1.4s1.4-0.6,1.4-1.4S-322.4,1-323.2,1z"/>
	<path class="st14" d="M-320.8,18.1h-4.7V5h4.7V18.1z M-324.5,17.1h2.7V6h-2.7V17.1z"/>
	
		<rect x="-323.7" y="4.2" transform="matrix(0.9996 -2.705868e-02 2.705868e-02 0.9996 -0.2544 -8.7429)" class="st14" width="1" height="1.6"/>
	<path class="st14" d="M-318.5,22.2h-9.2l2.3-5.1h4.3L-318.5,22.2z M-326.1,21.2h6l-1.5-3.1h-3.1L-326.1,21.2z"/>
	<rect x="-324.9" y="21.7" class="st14" width="1" height="5.3"/>
	<rect x="-322.2" y="21.7" class="st14" width="1" height="5.3"/>
	<path class="st14" d="M-319,17.2l-1,0c0.1-4.8,0-10.1-0.2-10.7c-0.3-0.6-1.2-0.4-1.2-0.4l-0.2-1c0.6-0.1,1.9-0.1,2.3,0.9
		C-318.9,7-319,14.8-319,17.2z"/>
	<path class="st14" d="M-327.5,17.2c-0.1-2.4-0.2-10.2,0.4-11.2c0.7-1.2,2.5-0.9,2.7-0.9l-0.2,1c-0.3-0.1-1.4-0.1-1.7,0.4
		c-0.3,0.6-0.4,5.9-0.3,10.7L-327.5,17.2z"/>
	<g>
		<path class="st14" d="M-267.8,4.7c-1.3,0-2.4-1.1-2.4-2.4s1.1-2.4,2.4-2.4c1.3,0,2.4,1.1,2.4,2.4S-266.4,4.7-267.8,4.7z M-267.8,1
			c-0.8,0-1.4,0.6-1.4,1.4s0.6,1.4,1.4,1.4s1.4-0.6,1.4-1.4S-267,1-267.8,1z"/>
		<path class="st14" d="M-265,22.2h-5.1V5h5.1V22.2z M-269.1,21.2h3.1V6h-3.1V21.2z"/>
		
			<rect x="-268.2" y="4.2" transform="matrix(0.9996 -2.705868e-02 2.705868e-02 0.9996 -0.2341 -7.2428)" class="st14" width="1" height="1.6"/>
		<rect x="-269.4" y="21.7" class="st14" width="1" height="5.3"/>
		<rect x="-266.8" y="21.7" class="st14" width="1" height="5.3"/>
		<path class="st14" d="M-263.1,17.2l-1,0c0.1-4.8,0-10.1-0.2-10.7c-0.3-0.6-1.2-0.4-1.2-0.4l-0.2-1c0.6-0.1,1.9-0.1,2.3,0.9
			C-263,7-263.1,14.8-263.1,17.2z"/>
		<path class="st14" d="M-272.1,17.2c-0.1-2.4-0.2-10.2,0.4-11.2c0.7-1.2,2.5-0.9,2.7-0.9l-0.2,1c-0.3-0.1-1.4-0.1-1.7,0.4
			c-0.3,0.6-0.4,5.9-0.3,10.7L-272.1,17.2z"/>
	</g>
</g>
<g>
	<path class="st13" d="M239.9,5.5c-1.3,0-2.4-1.1-2.4-2.4s1.1-2.4,2.4-2.4s2.4,1.1,2.4,2.4S241.2,5.5,239.9,5.5z M239.9,1.7
		c-0.8,0-1.4,0.6-1.4,1.4s0.6,1.4,1.4,1.4s1.4-0.6,1.4-1.4S240.6,1.7,239.9,1.7z"/>
	<path class="st13" d="M242.2,18.9h-4.7V5.7h4.7V18.9z M238.5,17.9h2.7V6.7h-2.7V17.9z"/>
	
		<rect x="239.4" y="4.9" transform="matrix(0.9996 -2.705868e-02 2.705868e-02 0.9996 -6.758665e-02 6.4931)" class="st13" width="1" height="1.6"/>
	<path class="st13" d="M244.6,22.9h-9.2l2.3-5.1h4.3L244.6,22.9z M237,21.9h6l-1.5-3.1h-3.1L237,21.9z"/>
	<rect x="238.2" y="22.4" class="st13" width="1" height="5.3"/>
	<rect x="240.8" y="22.4" class="st13" width="1" height="5.3"/>
	<path class="st13" d="M244,17.9l-1,0c0.1-4.8,0-10.1-0.2-10.7c-0.3-0.6-1.2-0.4-1.2-0.4l-0.2-1c0.6-0.1,1.9-0.1,2.3,0.9
		C244.2,7.7,244.1,15.5,244,17.9z"/>
	<path class="st13" d="M235.5,17.9c-0.1-2.4-0.2-10.2,0.4-11.2c0.7-1.2,2.5-0.9,2.7-0.9l-0.2,1c-0.3-0.1-1.4-0.1-1.7,0.4
		c-0.3,0.6-0.4,5.9-0.3,10.7L235.5,17.9z"/>
	<g>
		<path class="st13" d="M295.3,5.5c-1.3,0-2.4-1.1-2.4-2.4s1.1-2.4,2.4-2.4c1.3,0,2.4,1.1,2.4,2.4S296.6,5.5,295.3,5.5z M295.3,1.7
			c-0.8,0-1.4,0.6-1.4,1.4s0.6,1.4,1.4,1.4s1.4-0.6,1.4-1.4S296.1,1.7,295.3,1.7z"/>
		<path class="st13" d="M298.1,22.9H293V5.7h5.1V22.9z M294,21.9h3.1V6.7H294V21.9z"/>
		
			<rect x="294.8" y="4.9" transform="matrix(0.9996 -2.705868e-02 2.705868e-02 0.9996 -4.728821e-02 7.9931)" class="st13" width="1" height="1.6"/>
		<rect x="293.6" y="22.4" class="st13" width="1" height="5.3"/>
		<rect x="296.3" y="22.4" class="st13" width="1" height="5.3"/>
		<path class="st13" d="M299.9,17.9l-1,0c0.1-4.8,0-10.1-0.2-10.7c-0.3-0.6-1.2-0.4-1.2-0.4l-0.2-1c0.6-0.1,1.9-0.1,2.3,0.9
			C300.1,7.7,300,15.5,299.9,17.9z"/>
		<path class="st13" d="M291,17.9c-0.1-2.4-0.2-10.2,0.4-11.2c0.7-1.2,2.5-0.9,2.7-0.9l-0.2,1c-0.3-0.1-1.4-0.1-1.7,0.4
			c-0.3,0.6-0.4,5.9-0.3,10.7L291,17.9z"/>
	</g>
</g>
<g>
	<path class="st4" d="M-51,4.8c-1.3,0-2.4-1.1-2.4-2.4S-52.4,0-51,0s2.4,1.1,2.4,2.4S-49.7,4.8-51,4.8z M-51,1
		c-0.8,0-1.4,0.6-1.4,1.4s0.6,1.4,1.4,1.4s1.4-0.6,1.4-1.4S-50.3,1-51,1z"/>
	<path class="st4" d="M-48.7,18.2h-4.7V5.1h4.7V18.2z M-52.4,17.2h2.7V6.1h-2.7V17.2z"/>
	
		<rect x="-51.5" y="4.3" transform="matrix(0.9996 -2.705868e-02 2.705868e-02 0.9996 -0.1558 -1.3789)" class="st4" width="1" height="1.6"/>
	<path class="st4" d="M-46.3,22.2h-9.2l2.3-5.1h4.3L-46.3,22.2z M-53.9,21.2h6l-1.5-3.1h-3.1L-53.9,21.2z"/>
	<rect x="-52.7" y="21.7" class="st4" width="1" height="5.3"/>
	<rect x="-50.1" y="21.7" class="st4" width="1" height="5.3"/>
	<path class="st4" d="M-46.9,17.2l-1,0c0.1-4.8,0-10.1-0.2-10.7c-0.3-0.6-1.2-0.4-1.2-0.4l-0.2-1C-48.9,5-47.7,5-47.2,6
		C-46.7,7-46.8,14.8-46.9,17.2z"/>
	<path class="st4" d="M-55.4,17.2C-55.4,14.8-55.6,7-55,6c0.7-1.2,2.5-0.9,2.7-0.9l-0.2,1C-52.8,6-53.8,6-54.1,6.5
		c-0.3,0.6-0.4,5.9-0.3,10.7L-55.4,17.2z"/>
	<g>
		<path class="st4" d="M4.4,4.8C3.1,4.8,2,3.7,2,2.4S3.1,0,4.4,0c1.3,0,2.4,1.1,2.4,2.4S5.7,4.8,4.4,4.8z M4.4,1C3.6,1,3,1.6,3,2.4
			s0.6,1.4,1.4,1.4s1.4-0.6,1.4-1.4S5.2,1,4.4,1z"/>
		<path class="st4" d="M7.2,22.2H2.1V5.1h5.1V22.2z M3.1,21.2h3.1V6.1H3.1V21.2z"/>
		
			<rect x="3.9" y="4.3" transform="matrix(0.9996 -2.705868e-02 2.705868e-02 0.9996 -0.1355 0.1212)" class="st4" width="1" height="1.6"/>
		<rect x="2.7" y="21.7" class="st4" width="1" height="5.3"/>
		<rect x="5.4" y="21.7" class="st4" width="1" height="5.3"/>
		<path class="st4" d="M9,17.2l-1,0C8.1,12.4,8,7.1,7.8,6.5C7.5,5.9,6.6,6.1,6.5,6.1l-0.2-1C7,5,8.2,5,8.7,6C9.2,7,9.1,14.8,9,17.2z
			"/>
		<path class="st4" d="M0.1,17.2C0,14.8-0.1,7,0.5,6C1.1,4.8,3,5.1,3.2,5.1L3,6.1C2.7,6,1.6,6,1.3,6.5C1,7.1,0.9,12.4,1.1,17.2
			L0.1,17.2z"/>
	</g>
</g>
<circle class="st15" cx="-550.5" cy="-8.5" r="1.8"/>
<rect x="-552.2" y="-5.5" class="st15" width="3.5" height="11.5"/>
<line class="st15" x1="-550.5" y1="-6.7" x2="-550.4" y2="-5.2"/>
<polygon class="st15" points="-548.7,6 -546.8,9.9 -551.7,9.9 -553.9,9.9 -552.2,6 "/>
<line class="st15" x1="-551.6" y1="14.9" x2="-551.6" y2="9.9"/>
<line class="st15" x1="-549.1" y1="14.9" x2="-549.1" y2="9.9"/>
<path class="st15" d="M-548.9-5.4c0,0,1.3-0.3,1.7,0.6c0.4,0.9,0.3,10.4,0.3,10.4"/>
<path class="st15" d="M-551.7-5.4c0,0-1.6-0.3-2.1,0.6c-0.5,0.9-0.3,10.4-0.3,10.4"/>
</svg>
