<?xml version="1.0" encoding="utf-8"?>
<!-- Generator: Adobe Illustrator 19.2.0, SVG Export Plug-In . SVG Version: 6.00 Build 0)  -->
<svg version="1.1" id="Layer_1" xmlns="http://www.w3.org/2000/svg" xmlns:xlink="http://www.w3.org/1999/xlink" x="0px" y="0px"
	 viewBox="0 0 21 17.3" style="enable-background:new 0 0 21 17.3;" xml:space="preserve">
<style type="text/css">
	.st0{fill:none;stroke:#FFFFFF;stroke-width:2;stroke-miterlimit:10;}
	.st1{fill:none;stroke:#E9EBF0;stroke-width:2;stroke-miterlimit:10;}
	.st2{fill:#040D0B;}
	.st3{fill:none;stroke:#FFFFFF;stroke-miterlimit:10;}
	.st4{fill:#FFFFFF;}
	.st5{fill:none;stroke:#000000;stroke-miterlimit:10;}
	.st6{fill:#E4B373;}
	.st7{fill:#84AEA3;}
	.st8{fill:none;stroke:#DB7578;stroke-width:2;stroke-miterlimit:10;}
	.st9{fill:#2B2D2E;}
	.st10{fill:none;stroke:#787A7C;stroke-miterlimit:10;}
	.st11{fill:#B2B2B4;}
	.st12{fill:none;stroke:#77797B;stroke-width:2;stroke-miterlimit:10;}
	.st13{fill:#77797B;}
	.st14{fill:#E9EBF0;}
	.st15{fill:none;stroke:#E9EBF0;stroke-miterlimit:10;}
</style>
<rect x="-168.4" y="-4.5" class="st0" width="45.3" height="46.1"/>
<rect x="-113.6" y="-4.5" class="st0" width="46.1" height="46.1"/>
<g>
	<rect x="-277.4" y="-4.4" class="st1" width="28.9" height="28.9"/>
	<rect x="-240.3" y="-4.4" class="st1" width="28.9" height="28.9"/>
	<rect x="-204.7" y="-4.4" class="st1" width="28.9" height="28.9"/>
	<g>
		<polygon class="st2" points="-231.1,2 -235.8,6 -233.5,9.8 -231.1,8.2 -231.1,17.9 -220.9,17.9 -220.9,8.2 -218.5,10 -215.7,6 
			-220.4,2 		"/>
		<polygon class="st3" points="-231.3,2 -236.1,6 -233.7,9.9 -231.3,8.2 -231.3,18.1 -220.8,18.1 -220.8,8.2 -218.4,10 -215.6,6 
			-220.4,2 		"/>
		<path class="st3" d="M-223.2,2.2c0.1,0,0,0.6,0,0.7c-0.3,1.6-2.2,2.4-3.7,1.9c-1.2-0.4-1.7-1.4-1.9-2.6H-223.2z"/>
	</g>
	<g>
		<polygon class="st4" points="-268.2,2 -273.1,6 -270.7,9.9 -268.2,8.2 -268.2,18.1 -258.2,18.2 -258.2,8.2 -255.9,10 -252.8,5.8 
			-257.3,2 		"/>
		<polygon class="st5" points="-268.2,1.9 -272.8,6 -270.5,9.8 -268.2,8.2 -268.2,18.2 -258.2,18.2 -258.2,8.2 -255.9,10 -253.1,6 
			-257.8,1.9 		"/>
		<path class="st5" d="M-260.1,2.2c0.1,0,0,0.6,0,0.6c-0.3,1.4-2,2.2-3.3,1.7c-1.1-0.4-1.5-1.3-1.7-2.3H-260.1z"/>
	</g>
	<g>
		<polygon class="st6" points="-198.8,1.4 -202.5,4.6 -200.7,7.5 -198.8,6.3 -198.8,13.9 -190.7,13.9 -190.7,6.3 -188.8,7.7 
			-186.6,4.6 -190.3,1.4 		"/>
		<path class="st3" d="M-192.5,1.5c0,0,0,0.5,0,0.5c-0.2,1.3-1.8,1.9-2.9,1.5c-1-0.3-1.3-1.1-1.5-2.1H-192.5z"/>
		<polygon class="st3" points="-198.8,1.3 -202.6,4.6 -200.7,7.5 -198.8,6.3 -198.8,14 -190.6,14 -190.6,6.3 -188.8,7.7 -186.5,4.6 
			-190.3,1.3 		"/>
		<g>
			<polygon class="st7" points="-190.6,3.7 -194.4,6.9 -192.5,9.8 -190.6,8.6 -190.6,16.2 -182.5,16.2 -182.5,8.6 -180.7,10 
				-178.5,6.9 -182.2,3.7 			"/>
			<path class="st3" d="M-184.4,3.8c0,0,0,0.5,0,0.5c-0.2,1.3-1.8,1.9-2.9,1.5c-1-0.3-1.3-1.1-1.5-2.1H-184.4z"/>
			<polygon class="st3" points="-190.4,3.6 -194.2,6.8 -192.3,9.8 -190.4,8.5 -190.4,16.3 -182.2,16.3 -182.2,8.5 -180.4,10 
				-178.1,6.8 -181.9,3.6 			"/>
		</g>
	</g>
</g>
<rect x="-238.1" y="-58.9" class="st1" width="24.4" height="24.4"/>
<rect x="-208.9" y="-58.9" class="st1" width="24.4" height="24.4"/>
<rect x="-179" y="-58.9" class="st1" width="24.4" height="24.4"/>
<rect x="-150.3" y="-58.9" class="st1" width="24.4" height="24.4"/>
<rect x="-121.1" y="-58.9" class="st1" width="24.4" height="24.4"/>
<rect x="-91.5" y="-58.9" class="st1" width="24.4" height="24.4"/>
<text transform="matrix(1 0 0 1 -228.1368 -43.7064)" class="st4" style="font-family:'TTFirs-ExtraBold'; font-size:6.812px;">S</text>
<text transform="matrix(1 0 0 1 -199.9059 -43.0345)" class="st4" style="font-family:'TTFirs-ExtraBold'; font-size:6.812px;">M</text>
<text transform="matrix(1 0 0 1 -169.4337 -43.0345)" class="st4" style="font-family:'TTFirs-ExtraBold'; font-size:6.812px;">L</text>
<text transform="matrix(1 0 0 1 -142.1149 -43.0345)" class="st4" style="font-family:'TTFirs-ExtraBold'; font-size:6.812px;">XL</text>
<text transform="matrix(1 0 0 1 -115.9 -43.0345)" class="st4" style="font-family:'TTFirs-ExtraBold'; font-size:6.812px;">XXL</text>
<text transform="matrix(1 0 0 1 -88.565 -43.638)" class="st4" style="font-family:'TTFirs-ExtraBold'; font-size:6.812px;">XXXL</text>
<rect x="-266.9" y="-58.9" class="st1" width="24.4" height="24.4"/>
<text transform="matrix(1 0 0 1 -259.7291 -43.7064)" class="st4" style="font-family:'TTFirs-ExtraBold'; font-size:6.812px;">XS</text>
<rect x="105.1" y="-5.9" class="st8" width="45.3" height="46.1"/>
<rect x="159.9" y="-5.9" class="st8" width="46.1" height="46.1"/>
<rect x="-3.9" y="-5.8" class="st8" width="28.9" height="28.9"/>
<rect x="33.2" y="-5.8" class="st8" width="28.9" height="28.9"/>
<rect x="68.8" y="-5.8" class="st8" width="28.9" height="28.9"/>
<g>
	<polygon class="st2" points="42.4,0.7 37.6,4.7 40,8.4 42.4,6.8 42.4,16.5 52.6,16.5 52.6,6.8 55,8.6 57.8,4.7 53.1,0.7 	"/>
	<polygon class="st3" points="42.2,0.6 37.4,4.7 39.8,8.5 42.2,6.8 42.2,16.7 52.7,16.7 52.7,6.8 55,8.7 57.9,4.7 53.1,0.6 	"/>
	<path class="st3" d="M50.3,0.8c0.1,0,0,0.6,0,0.7c-0.3,1.6-2.2,2.4-3.7,1.9C45.4,3,44.9,2,44.7,0.8H50.3z"/>
</g>
<g>
	<polygon class="st4" points="5.2,0.6 0.4,4.7 2.8,8.5 5.2,6.8 5.2,16.7 15.3,16.8 15.3,6.8 17.6,8.7 20.7,4.4 16.1,0.6 	"/>
	<polygon class="st5" points="5.3,0.5 0.6,4.6 3,8.5 5.3,6.8 5.3,16.8 15.3,16.8 15.3,6.8 17.6,8.7 20.3,4.6 15.7,0.5 	"/>
	<path class="st5" d="M13.3,0.8c0.1,0,0,0.6,0,0.6c-0.3,1.4-2,2.2-3.3,1.7C9,2.8,8.6,1.9,8.4,0.8H13.3z"/>
</g>
<polygon class="st9" points="332.4,0.6 327.7,4.6 330,8.3 332.4,6.7 332.4,16.4 342.6,16.4 342.6,6.7 345,8.5 347.8,4.6 343.1,0.6 
	"/>
<polygon class="st10" points="332.2,0.5 327.4,4.6 329.8,8.4 332.2,6.8 332.2,16.7 342.7,16.7 342.7,6.8 345.1,8.6 347.9,4.6 
	343.1,0.5 "/>
<path class="st10" d="M340.3,0.7c0.1,0,0,0.6,0,0.7c-0.3,1.6-2.2,2.4-3.7,1.9c-1.2-0.4-1.7-1.4-1.9-2.6H340.3z"/>
<polygon class="st11" points="295.3,0.5 290.4,4.6 292.8,8.4 295.3,6.8 295.3,16.7 305.3,16.7 305.3,6.7 307.6,8.6 310.7,4.4 
	306.2,0.5 "/>
<polygon class="st10" points="295.3,0.4 290.7,4.6 293,8.4 295.3,6.7 295.3,16.7 305.3,16.7 305.3,6.7 307.6,8.6 310.4,4.6 
	305.8,0.4 "/>
<path class="st10" d="M303.4,0.8c0.1,0,0,0.6,0,0.6c-0.3,1.4-2,2.2-3.3,1.7c-1.1-0.4-1.5-1.3-1.7-2.3H303.4z"/>
<g>
	<polygon class="st6" points="74.7,0 71,3.2 72.8,6.1 74.7,4.9 74.7,12.6 82.8,12.6 82.8,4.9 84.7,6.3 86.9,3.2 83.1,0 	"/>
	<path class="st3" d="M81,0.2c0,0,0,0.5,0,0.5c-0.2,1.3-1.8,1.9-2.9,1.5c-1-0.3-1.3-1.1-1.5-2.1H81z"/>
	<polygon class="st3" points="74.7,0 70.9,3.2 72.8,6.1 74.7,4.9 74.7,12.6 82.9,12.6 82.9,4.9 84.7,6.3 87,3.2 83.2,0 	"/>
	<g>
		<polygon class="st7" points="82.8,2.3 79.1,5.5 81,8.4 82.8,7.2 82.8,14.9 90.9,14.9 90.9,7.2 92.8,8.6 95,5.5 91.3,2.3 		"/>
		<path class="st3" d="M89.1,2.4c0,0,0,0.5,0,0.5c-0.2,1.3-1.8,1.9-2.9,1.5c-1-0.3-1.3-1.1-1.5-2.1H89.1z"/>
		<polygon class="st3" points="83.1,2.3 79.3,5.5 81.2,8.4 83.1,7.2 83.1,14.9 91.3,14.9 91.3,7.2 93.1,8.6 95.4,5.5 91.6,2.3 		"/>
	</g>
</g>
<rect x="35.4" y="-60.3" class="st8" width="24.4" height="24.4"/>
<rect x="64.6" y="-60.3" class="st8" width="24.4" height="24.4"/>
<rect x="94.4" y="-60.3" class="st8" width="24.4" height="24.4"/>
<rect x="123.2" y="-60.3" class="st8" width="24.4" height="24.4"/>
<rect x="152.4" y="-60.3" class="st8" width="24.4" height="24.4"/>
<rect x="181.9" y="-60.3" class="st8" width="24.4" height="24.4"/>
<text transform="matrix(1 0 0 1 45.3507 -45.0976)" class="st4" style="font-family:'TTFirs-ExtraBold'; font-size:6.812px;">S</text>
<text transform="matrix(1 0 0 1 73.5817 -44.4248)" class="st4" style="font-family:'TTFirs-ExtraBold'; font-size:6.812px;">M</text>
<text transform="matrix(1 0 0 1 104.0539 -44.4248)" class="st4" style="font-family:'TTFirs-ExtraBold'; font-size:6.812px;">L</text>
<text transform="matrix(1 0 0 1 131.3727 -44.4248)" class="st4" style="font-family:'TTFirs-ExtraBold'; font-size:6.812px;">XL</text>
<text transform="matrix(1 0 0 1 157.5871 -44.4248)" class="st4" style="font-family:'TTFirs-ExtraBold'; font-size:6.812px;">XXL</text>
<text transform="matrix(1 0 0 1 184.922 -45.0283)" class="st4" style="font-family:'TTFirs-ExtraBold'; font-size:6.812px;">XXXL</text>
<rect x="6.6" y="-60.3" class="st8" width="24.4" height="24.4"/>
<text transform="matrix(1 0 0 1 13.7585 -45.0966)" class="st4" style="font-family:'TTFirs-ExtraBold'; font-size:6.812px;">XS</text>
<rect x="395.2" y="-5.9" class="st12" width="45.3" height="46.1"/>
<rect x="450" y="-5.9" class="st12" width="46.1" height="46.1"/>
<rect x="286.2" y="-5.8" class="st12" width="28.9" height="28.9"/>
<rect x="323.3" y="-5.8" class="st12" width="28.9" height="28.9"/>
<rect x="358.8" y="-5.8" class="st12" width="28.9" height="28.9"/>
<polygon class="st11" points="364.8,0 361,3.2 362.9,6.1 364.8,4.9 364.8,12.6 372.9,12.6 372.9,4.9 374.7,6.3 376.9,3.2 373.2,0 
	"/>
<path class="st10" d="M371.1,0.2c0,0,0,0.5,0,0.5c-0.2,1.3-1.8,1.9-2.9,1.5c-1-0.3-1.3-1.1-1.5-2.1H371.1z"/>
<polygon class="st10" points="364.7,0 360.9,3.2 362.8,6.1 364.7,4.9 364.7,12.6 372.9,12.6 372.9,4.9 374.8,6.3 377,3.2 373.3,0 
	"/>
<polygon class="st9" points="372.9,2.3 369.2,5.5 371,8.4 372.9,7.2 372.9,14.9 381,14.9 381,7.2 382.9,8.6 385.1,5.5 381.4,2.3 "/>
<path class="st10" d="M379.2,2.4c0,0,0,0.5,0,0.5c-0.2,1.3-1.8,1.9-2.9,1.5c-1-0.3-1.3-1.1-1.5-2.1H379.2z"/>
<polygon class="st10" points="373.1,2.3 369.3,5.5 371.2,8.4 373.1,7.2 373.1,14.9 381.3,14.9 381.3,7.2 383.2,8.6 385.5,5.5 
	381.7,2.3 "/>
<rect x="325.5" y="-60.3" class="st12" width="24.4" height="24.4"/>
<rect x="354.7" y="-60.3" class="st12" width="24.4" height="24.4"/>
<rect x="384.5" y="-60.3" class="st12" width="24.4" height="24.4"/>
<rect x="413.3" y="-60.3" class="st12" width="24.4" height="24.4"/>
<rect x="442.5" y="-60.3" class="st12" width="24.4" height="24.4"/>
<rect x="472" y="-60.3" class="st12" width="24.4" height="24.4"/>
<text transform="matrix(1 0 0 1 335.4304 -45.0968)" class="st13" style="font-family:'TTFirs-ExtraBold'; font-size:6.812px;">S</text>
<text transform="matrix(1 0 0 1 363.6609 -44.4249)" class="st13" style="font-family:'TTFirs-ExtraBold'; font-size:6.812px;">M</text>
<text transform="matrix(1 0 0 1 394.1335 -44.4249)" class="st13" style="font-family:'TTFirs-ExtraBold'; font-size:6.812px;">L</text>
<text transform="matrix(1 0 0 1 421.4519 -44.4249)" class="st13" style="font-family:'TTFirs-ExtraBold'; font-size:6.812px;">XL</text>
<text transform="matrix(1 0 0 1 447.6667 -44.4249)" class="st13" style="font-family:'TTFirs-ExtraBold'; font-size:6.812px;">XXL</text>
<text transform="matrix(1 0 0 1 475.0017 -45.0284)" class="st13" style="font-family:'TTFirs-ExtraBold'; font-size:6.812px;">XXXL</text>
<rect x="296.7" y="-60.3" class="st12" width="24.4" height="24.4"/>
<text transform="matrix(1 0 0 1 303.8376 -45.0968)" class="st13" style="font-family:'TTFirs-ExtraBold'; font-size:6.812px;">XS</text>
<g>
	<path class="st14" d="M-145.4,8.4c-1.3,0-2.4-1.1-2.4-2.4s1.1-2.4,2.4-2.4S-143,4.7-143,6S-144.1,8.4-145.4,8.4z M-145.4,4.7
		c-0.8,0-1.4,0.6-1.4,1.4s0.6,1.4,1.4,1.4S-144,6.8-144,6S-144.6,4.7-145.4,4.7z"/>
	<path class="st14" d="M-143,21.8h-4.7V8.7h4.7V21.8z M-146.7,20.8h2.7V9.7h-2.7V20.8z"/>
	
		<rect x="-145.9" y="7.9" transform="matrix(0.9996 -2.705868e-02 2.705868e-02 0.9996 -0.2893 -3.9306)" class="st14" width="1" height="1.6"/>
	<path class="st14" d="M-140.7,25.9h-9.2l2.3-5.1h4.3L-140.7,25.9z M-148.3,24.9h6l-1.5-3.1h-3.1L-148.3,24.9z"/>
	<rect x="-147.1" y="25.4" class="st14" width="1" height="5.3"/>
	<rect x="-144.4" y="25.4" class="st14" width="1" height="5.3"/>
	<path class="st14" d="M-141.2,20.9l-1,0c0.1-4.8,0-10.1-0.2-10.7c-0.3-0.6-1.2-0.4-1.2-0.4l-0.2-1c0.6-0.1,1.9-0.1,2.3,0.9
		C-141.1,10.7-141.2,18.5-141.2,20.9z"/>
	<path class="st14" d="M-149.7,20.9c-0.1-2.4-0.2-10.2,0.4-11.2c0.7-1.2,2.5-0.9,2.7-0.9l-0.2,1c-0.3-0.1-1.4-0.1-1.7,0.4
		c-0.3,0.6-0.4,5.9-0.3,10.7L-149.7,20.9z"/>
	<g>
		<path class="st14" d="M-90,8.4c-1.3,0-2.4-1.1-2.4-2.4s1.1-2.4,2.4-2.4c1.3,0,2.4,1.1,2.4,2.4S-88.6,8.4-90,8.4z M-90,4.7
			c-0.8,0-1.4,0.6-1.4,1.4s0.6,1.4,1.4,1.4s1.4-0.6,1.4-1.4S-89.2,4.7-90,4.7z"/>
		<path class="st14" d="M-87.2,25.9h-5.1V8.7h5.1V25.9z M-91.3,24.9h3.1V9.7h-3.1V24.9z"/>
		
			<rect x="-90.4" y="7.9" transform="matrix(0.9996 -2.705868e-02 2.705868e-02 0.9996 -0.269 -2.4305)" class="st14" width="1" height="1.6"/>
		<rect x="-91.6" y="25.4" class="st14" width="1" height="5.3"/>
		<rect x="-89" y="25.4" class="st14" width="1" height="5.3"/>
		<path class="st14" d="M-85.3,20.9l-1,0c0.1-4.8,0-10.1-0.2-10.7c-0.3-0.6-1.2-0.4-1.2-0.4l-0.2-1c0.6-0.1,1.9-0.1,2.3,0.9
			C-85.2,10.7-85.3,18.5-85.3,20.9z"/>
		<path class="st14" d="M-94.3,20.9c-0.1-2.4-0.2-10.2,0.4-11.2c0.7-1.2,2.5-0.9,2.7-0.9l-0.2,1c-0.3-0.1-1.4-0.1-1.7,0.4
			c-0.3,0.6-0.4,5.9-0.3,10.7L-94.3,20.9z"/>
	</g>
</g>
<g>
	<path class="st13" d="M417.7,9.1c-1.3,0-2.4-1.1-2.4-2.4s1.1-2.4,2.4-2.4s2.4,1.1,2.4,2.4S419,9.1,417.7,9.1z M417.7,5.4
		c-0.8,0-1.4,0.6-1.4,1.4s0.6,1.4,1.4,1.4s1.4-0.6,1.4-1.4S418.4,5.4,417.7,5.4z"/>
	<path class="st13" d="M420,22.5h-4.7V9.4h4.7V22.5z M416.3,21.5h2.7V10.4h-2.7V21.5z"/>
	
		<rect x="417.2" y="8.6" transform="matrix(0.9996 -2.705868e-02 2.705868e-02 0.9996 -0.1025 11.3054)" class="st13" width="1" height="1.6"/>
	<path class="st13" d="M422.4,26.6h-9.2l2.3-5.1h4.3L422.4,26.6z M414.8,25.6h6l-1.5-3.1h-3.1L414.8,25.6z"/>
	<rect x="416" y="26.1" class="st13" width="1" height="5.3"/>
	<rect x="418.6" y="26.1" class="st13" width="1" height="5.3"/>
	<path class="st13" d="M421.8,21.6l-1,0c0.1-4.8,0-10.1-0.2-10.7c-0.3-0.6-1.2-0.4-1.2-0.4l-0.2-1c0.6-0.1,1.9-0.1,2.3,0.9
		C422,11.4,421.9,19.2,421.8,21.6z"/>
	<path class="st13" d="M413.3,21.6c-0.1-2.4-0.2-10.2,0.4-11.2c0.7-1.2,2.5-0.9,2.7-0.9l-0.2,1c-0.3-0.1-1.4-0.1-1.7,0.4
		c-0.3,0.6-0.4,5.9-0.3,10.7L413.3,21.6z"/>
	<g>
		<path class="st13" d="M473.1,9.1c-1.3,0-2.4-1.1-2.4-2.4s1.1-2.4,2.4-2.4c1.3,0,2.4,1.1,2.4,2.4S474.4,9.1,473.1,9.1z M473.1,5.4
			c-0.8,0-1.4,0.6-1.4,1.4s0.6,1.4,1.4,1.4s1.4-0.6,1.4-1.4S473.9,5.4,473.1,5.4z"/>
		<path class="st13" d="M475.9,26.6h-5.1V9.4h5.1V26.6z M471.8,25.6h3.1V10.4h-3.1V25.6z"/>
		
			<rect x="472.6" y="8.6" transform="matrix(0.9996 -2.705868e-02 2.705868e-02 0.9996 -8.218323e-02 12.8055)" class="st13" width="1" height="1.6"/>
		<rect x="471.4" y="26.1" class="st13" width="1" height="5.3"/>
		<rect x="474.1" y="26.1" class="st13" width="1" height="5.3"/>
		<path class="st13" d="M477.7,21.6l-1,0c0.1-4.8,0-10.1-0.2-10.7c-0.3-0.6-1.2-0.4-1.2-0.4l-0.2-1c0.6-0.1,1.9-0.1,2.3,0.9
			C477.9,11.4,477.8,19.2,477.7,21.6z"/>
		<path class="st13" d="M468.8,21.6c-0.1-2.4-0.2-10.2,0.4-11.2c0.7-1.2,2.5-0.9,2.7-0.9l-0.2,1c-0.3-0.1-1.4-0.1-1.7,0.4
			c-0.3,0.6-0.4,5.9-0.3,10.7L468.8,21.6z"/>
	</g>
</g>
<g>
	<path class="st14" d="M126.7,8.5c-1.3,0-2.4-1.1-2.4-2.4s1.1-2.4,2.4-2.4s2.4,1.1,2.4,2.4S128.1,8.5,126.7,8.5z M126.7,4.7
		c-0.8,0-1.4,0.6-1.4,1.4s0.6,1.4,1.4,1.4s1.4-0.6,1.4-1.4S127.5,4.7,126.7,4.7z"/>
	<path class="st14" d="M129.1,21.9h-4.7V8.8h4.7V21.9z M125.4,20.9h2.7V9.8h-2.7V20.9z"/>
	
		<rect x="126.3" y="8" transform="matrix(0.9996 -2.705868e-02 2.705868e-02 0.9996 -0.1907 3.4334)" class="st14" width="1" height="1.6"/>
	<path class="st14" d="M131.5,25.9h-9.2l2.3-5.1h4.3L131.5,25.9z M123.9,24.9h6l-1.5-3.1h-3.1L123.9,24.9z"/>
	<rect x="125.1" y="25.4" class="st14" width="1" height="5.3"/>
	<rect x="127.7" y="25.4" class="st14" width="1" height="5.3"/>
	<path class="st14" d="M130.9,20.9l-1,0c0.1-4.8,0-10.1-0.2-10.7c-0.3-0.6-1.2-0.4-1.2-0.4l-0.2-1c0.6-0.1,1.9-0.1,2.3,0.9
		C131.1,10.7,131,18.5,130.9,20.9z"/>
	<path class="st14" d="M122.4,20.9c-0.1-2.4-0.2-10.2,0.4-11.2c0.7-1.2,2.5-0.9,2.7-0.9l-0.2,1c-0.3-0.1-1.4-0.1-1.7,0.4
		c-0.3,0.6-0.4,5.9-0.3,10.7L122.4,20.9z"/>
	<g>
		<path class="st14" d="M182.2,8.5c-1.3,0-2.4-1.1-2.4-2.4s1.1-2.4,2.4-2.4c1.3,0,2.4,1.1,2.4,2.4S183.5,8.5,182.2,8.5z M182.2,4.7
			c-0.8,0-1.4,0.6-1.4,1.4s0.6,1.4,1.4,1.4s1.4-0.6,1.4-1.4S182.9,4.7,182.2,4.7z"/>
		<path class="st14" d="M185,25.9h-5.1V8.8h5.1V25.9z M180.9,24.9h3.1V9.8h-3.1V24.9z"/>
		
			<rect x="181.7" y="8" transform="matrix(0.9996 -2.705868e-02 2.705868e-02 0.9996 -0.1704 4.9335)" class="st14" width="1" height="1.6"/>
		<rect x="180.5" y="25.4" class="st14" width="1" height="5.3"/>
		<rect x="183.2" y="25.4" class="st14" width="1" height="5.3"/>
		<path class="st14" d="M186.8,20.9l-1,0c0.1-4.8,0-10.1-0.2-10.7c-0.3-0.6-1.2-0.4-1.2-0.4l-0.2-1c0.6-0.1,1.9-0.1,2.3,0.9
			C187,10.7,186.9,18.5,186.8,20.9z"/>
		<path class="st14" d="M177.8,20.9c-0.1-2.4-0.2-10.2,0.4-11.2c0.7-1.2,2.5-0.9,2.7-0.9l-0.2,1c-0.3-0.1-1.4-0.1-1.7,0.4
			c-0.3,0.6-0.4,5.9-0.3,10.7L177.8,20.9z"/>
	</g>
</g>
<circle class="st15" cx="-372.7" cy="-4.8" r="1.8"/>
<rect x="-374.4" y="-1.8" class="st15" width="3.5" height="11.5"/>
<line class="st15" x1="-372.7" y1="-3" x2="-372.6" y2="-1.5"/>
<polygon class="st15" points="-370.9,9.7 -369,13.6 -373.9,13.6 -376.1,13.6 -374.4,9.7 "/>
<line class="st15" x1="-373.8" y1="18.6" x2="-373.8" y2="13.6"/>
<line class="st15" x1="-371.3" y1="18.6" x2="-371.3" y2="13.6"/>
<path class="st15" d="M-371.1-1.7c0,0,1.3-0.3,1.7,0.6c0.4,0.9,0.3,10.4,0.3,10.4"/>
<path class="st15" d="M-373.9-1.7c0,0-1.6-0.3-2.1,0.6c-0.5,0.9-0.3,10.4-0.3,10.4"/>
</svg>
