<?xml version="1.0" encoding="utf-8"?>
<!-- Generator: Adobe Illustrator 19.2.0, SVG Export Plug-In . SVG Version: 6.00 Build 0)  -->
<svg version="1.1" id="Layer_1" xmlns="http://www.w3.org/2000/svg" xmlns:xlink="http://www.w3.org/1999/xlink" x="0px" y="0px"
	 viewBox="0 0 9.2 27" style="enable-background:new 0 0 9.2 27;" xml:space="preserve">
<style type="text/css">
	.st0{fill:none;stroke:#FFFFFF;stroke-width:2;stroke-miterlimit:10;}
	.st1{fill:none;stroke:#E9EBF0;stroke-width:2;stroke-miterlimit:10;}
	.st2{fill:#040D0B;}
	.st3{fill:none;stroke:#FFFFFF;stroke-miterlimit:10;}
	.st4{fill:#FFFFFF;}
	.st5{fill:none;stroke:#000000;stroke-miterlimit:10;}
	.st6{fill:#E4B373;}
	.st7{fill:#84AEA3;}
	.st8{fill:none;stroke:#DB7578;stroke-width:2;stroke-miterlimit:10;}
	.st9{fill:#2B2D2E;}
	.st10{fill:none;stroke:#787A7C;stroke-miterlimit:10;}
	.st11{fill:#B2B2B4;}
	.st12{fill:none;stroke:#77797B;stroke-width:2;stroke-miterlimit:10;}
	.st13{fill:#77797B;}
	.st14{fill:#E9EBF0;}
	.st15{fill:none;stroke:#E9EBF0;stroke-miterlimit:10;}
</style>
<rect x="-290.7" y="-8.2" class="st0" width="45.3" height="46.1"/>
<rect x="-235.9" y="-8.2" class="st0" width="46.1" height="46.1"/>
<g>
	<rect x="-399.7" y="-8.1" class="st1" width="28.9" height="28.9"/>
	<rect x="-362.6" y="-8.1" class="st1" width="28.9" height="28.9"/>
	<rect x="-327" y="-8.1" class="st1" width="28.9" height="28.9"/>
	<g>
		<polygon class="st2" points="-353.4,-1.7 -358.2,2.4 -355.8,6.1 -353.4,4.5 -353.4,14.2 -343.2,14.2 -343.2,4.5 -340.8,6.3 
			-338.1,2.4 -342.8,-1.7 		"/>
		<polygon class="st3" points="-353.6,-1.7 -358.5,2.4 -356,6.2 -353.6,4.5 -353.6,14.4 -343.1,14.4 -343.1,4.5 -340.8,6.3 
			-337.9,2.4 -342.7,-1.7 		"/>
		<path class="st3" d="M-345.5-1.5c0.1,0,0,0.6,0,0.7c-0.3,1.6-2.2,2.4-3.7,1.9c-1.2-0.4-1.7-1.4-1.9-2.6H-345.5z"/>
	</g>
	<g>
		<polygon class="st4" points="-390.6,-1.7 -395.4,2.4 -393,6.2 -390.6,4.5 -390.6,14.4 -380.5,14.5 -380.5,4.5 -378.2,6.3 
			-375.1,2.1 -379.7,-1.7 		"/>
		<polygon class="st5" points="-390.5,-1.8 -395.2,2.3 -392.8,6.2 -390.5,4.5 -390.5,14.5 -380.5,14.5 -380.5,4.5 -378.2,6.3 
			-375.5,2.3 -380.1,-1.8 		"/>
		<path class="st5" d="M-382.5-1.5c0.1,0,0,0.6,0,0.6c-0.3,1.4-2,2.2-3.3,1.7c-1.1-0.4-1.5-1.3-1.7-2.3H-382.5z"/>
	</g>
	<g>
		<polygon class="st6" points="-321.1,-2.3 -324.9,0.9 -323,3.8 -321.1,2.6 -321.1,10.3 -313,10.3 -313,2.6 -311.1,4 -308.9,0.9 
			-312.7,-2.3 		"/>
		<path class="st3" d="M-314.8-2.2c0,0,0,0.5,0,0.5c-0.2,1.3-1.8,1.9-2.9,1.5c-1-0.3-1.3-1.1-1.5-2.1H-314.8z"/>
		<polygon class="st3" points="-321.1,-2.3 -325,0.9 -323,3.8 -321.1,2.6 -321.1,10.3 -312.9,10.3 -312.9,2.6 -311.1,4 -308.8,0.9 
			-312.6,-2.3 		"/>
		<g>
			<polygon class="st7" points="-313,0 -316.7,3.2 -314.8,6.1 -313,4.9 -313,12.5 -304.9,12.5 -304.9,4.9 -303,6.3 -300.8,3.2 
				-304.5,0 			"/>
			<path class="st3" d="M-306.7,0.1c0,0,0,0.5,0,0.5c-0.2,1.3-1.8,1.9-2.9,1.5c-1-0.3-1.3-1.1-1.5-2.1H-306.7z"/>
			<polygon class="st3" points="-312.7,-0.1 -316.5,3.2 -314.6,6.1 -312.7,4.9 -312.7,12.6 -304.5,12.6 -304.5,4.9 -302.7,6.3 
				-300.4,3.2 -304.2,-0.1 			"/>
		</g>
	</g>
</g>
<rect x="-360.4" y="-62.6" class="st1" width="24.4" height="24.4"/>
<rect x="-331.2" y="-62.6" class="st1" width="24.4" height="24.4"/>
<rect x="-301.4" y="-62.6" class="st1" width="24.4" height="24.4"/>
<rect x="-272.6" y="-62.6" class="st1" width="24.4" height="24.4"/>
<rect x="-243.4" y="-62.6" class="st1" width="24.4" height="24.4"/>
<rect x="-213.9" y="-62.6" class="st1" width="24.4" height="24.4"/>
<text transform="matrix(1 0 0 1 -350.4555 -47.4019)" class="st4" style="font-family:'TTFirs-ExtraBold'; font-size:6.812px;">S</text>
<text transform="matrix(1 0 0 1 -322.2245 -46.73)" class="st4" style="font-family:'TTFirs-ExtraBold'; font-size:6.812px;">M</text>
<text transform="matrix(1 0 0 1 -291.7524 -46.73)" class="st4" style="font-family:'TTFirs-ExtraBold'; font-size:6.812px;">L</text>
<text transform="matrix(1 0 0 1 -264.4336 -46.73)" class="st4" style="font-family:'TTFirs-ExtraBold'; font-size:6.812px;">XL</text>
<text transform="matrix(1 0 0 1 -238.2187 -46.73)" class="st4" style="font-family:'TTFirs-ExtraBold'; font-size:6.812px;">XXL</text>
<text transform="matrix(1 0 0 1 -210.8837 -47.3335)" class="st4" style="font-family:'TTFirs-ExtraBold'; font-size:6.812px;">XXXL</text>
<rect x="-389.2" y="-62.6" class="st1" width="24.4" height="24.4"/>
<text transform="matrix(1 0 0 1 -382.0478 -47.4019)" class="st4" style="font-family:'TTFirs-ExtraBold'; font-size:6.812px;">XS</text>
<rect x="-17.2" y="-9.6" class="st8" width="45.3" height="46.1"/>
<rect x="37.6" y="-9.6" class="st8" width="46.1" height="46.1"/>
<rect x="-126.2" y="-9.5" class="st8" width="28.9" height="28.9"/>
<rect x="-89.1" y="-9.5" class="st8" width="28.9" height="28.9"/>
<rect x="-53.6" y="-9.5" class="st8" width="28.9" height="28.9"/>
<g>
	<polygon class="st2" points="-79.9,-3 -84.7,1 -82.3,4.7 -79.9,3.1 -79.9,12.8 -69.7,12.8 -69.7,3.1 -67.4,4.9 -64.6,1 -69.3,-3 	
		"/>
	<polygon class="st3" points="-80.1,-3.1 -85,1 -82.5,4.8 -80.1,3.1 -80.1,13 -69.7,13 -69.7,3.1 -67.3,5 -64.4,1 -69.2,-3.1 	"/>
	<path class="st3" d="M-72-2.9c0.1,0,0,0.6,0,0.7c-0.3,1.6-2.2,2.4-3.7,1.9c-1.2-0.4-1.7-1.4-1.9-2.6H-72z"/>
</g>
<g>
	<polygon class="st4" points="-117.1,-3.1 -121.9,1 -119.5,4.8 -117.1,3.1 -117.1,13 -107,13.1 -107,3.1 -104.7,5 -101.6,0.7 
		-106.2,-3.1 	"/>
	<polygon class="st5" points="-117,-3.2 -121.7,0.9 -119.4,4.8 -117,3.1 -117,13.1 -107,13.1 -107,3.1 -104.7,5 -102,0.9 
		-106.6,-3.2 	"/>
	<path class="st5" d="M-109-2.9c0.1,0,0,0.6,0,0.6c-0.3,1.4-2,2.2-3.3,1.7c-1.1-0.4-1.5-1.3-1.7-2.3H-109z"/>
</g>
<polygon class="st9" points="210.1,-3.1 205.3,0.9 207.7,4.6 210.1,3 210.1,12.7 220.3,12.7 220.3,3 222.7,4.8 225.5,0.9 
	220.8,-3.1 "/>
<polygon class="st10" points="209.9,-3.2 205.1,0.9 207.5,4.7 209.9,3.1 209.9,13 220.4,13 220.4,3.1 222.7,4.9 225.6,0.9 
	220.8,-3.2 "/>
<path class="st10" d="M218-3c0.1,0,0,0.6,0,0.7c-0.3,1.6-2.2,2.4-3.7,1.9c-1.2-0.4-1.7-1.4-1.9-2.6H218z"/>
<polygon class="st11" points="172.9,-3.2 168.1,0.9 170.5,4.7 172.9,3.1 172.9,13 183,13 183,3 185.3,4.9 188.4,0.7 183.8,-3.2 "/>
<polygon class="st10" points="173,-3.3 168.3,0.9 170.7,4.7 173,3 173,13 183,13 183,3 185.3,4.9 188,0.9 183.4,-3.3 "/>
<path class="st10" d="M181-2.9c0.1,0,0,0.6,0,0.6c-0.3,1.4-2,2.2-3.3,1.7c-1.1-0.4-1.5-1.3-1.7-2.3H181z"/>
<g>
	<polygon class="st6" points="-47.6,-3.7 -51.4,-0.5 -49.5,2.5 -47.6,1.2 -47.6,8.9 -39.5,8.9 -39.5,1.2 -37.7,2.6 -35.5,-0.5 
		-39.2,-3.7 	"/>
	<path class="st3" d="M-41.3-3.5c0,0,0,0.5,0,0.5c-0.2,1.3-1.8,1.9-2.9,1.5c-1-0.3-1.3-1.1-1.5-2.1H-41.3z"/>
	<polygon class="st3" points="-47.7,-3.7 -51.5,-0.5 -49.6,2.5 -47.7,1.2 -47.7,8.9 -39.5,8.9 -39.5,1.2 -37.6,2.6 -35.4,-0.5 
		-39.1,-3.7 	"/>
	<g>
		<polygon class="st7" points="-39.5,-1.4 -43.2,1.8 -41.4,4.7 -39.5,3.5 -39.5,11.2 -31.4,11.2 -31.4,3.5 -29.5,4.9 -27.3,1.8 
			-31,-1.4 		"/>
		<path class="st3" d="M-33.2-1.2c0,0,0,0.5,0,0.5c-0.2,1.3-1.8,1.9-2.9,1.5c-1-0.3-1.3-1.1-1.5-2.1H-33.2z"/>
		<polygon class="st3" points="-39.3,-1.4 -43.1,1.8 -41.2,4.7 -39.3,3.5 -39.3,11.2 -31,11.2 -31,3.5 -29.2,4.9 -26.9,1.8 
			-30.7,-1.4 		"/>
	</g>
</g>
<rect x="-86.9" y="-64" class="st8" width="24.4" height="24.4"/>
<rect x="-57.7" y="-64" class="st8" width="24.4" height="24.4"/>
<rect x="-27.9" y="-64" class="st8" width="24.4" height="24.4"/>
<rect x="0.9" y="-64" class="st8" width="24.4" height="24.4"/>
<rect x="30.1" y="-64" class="st8" width="24.4" height="24.4"/>
<rect x="59.6" y="-64" class="st8" width="24.4" height="24.4"/>
<text transform="matrix(1 0 0 1 -76.9679 -48.7932)" class="st4" style="font-family:'TTFirs-ExtraBold'; font-size:6.812px;">S</text>
<text transform="matrix(1 0 0 1 -48.737 -48.1203)" class="st4" style="font-family:'TTFirs-ExtraBold'; font-size:6.812px;">M</text>
<text transform="matrix(1 0 0 1 -18.2648 -48.1203)" class="st4" style="font-family:'TTFirs-ExtraBold'; font-size:6.812px;">L</text>
<text transform="matrix(1 0 0 1 9.054 -48.1203)" class="st4" style="font-family:'TTFirs-ExtraBold'; font-size:6.812px;">XL</text>
<text transform="matrix(1 0 0 1 35.2684 -48.1203)" class="st4" style="font-family:'TTFirs-ExtraBold'; font-size:6.812px;">XXL</text>
<text transform="matrix(1 0 0 1 62.6034 -48.7238)" class="st4" style="font-family:'TTFirs-ExtraBold'; font-size:6.812px;">XXXL</text>
<rect x="-115.7" y="-64" class="st8" width="24.4" height="24.4"/>
<text transform="matrix(1 0 0 1 -108.5602 -48.7922)" class="st4" style="font-family:'TTFirs-ExtraBold'; font-size:6.812px;">XS</text>
<rect x="272.9" y="-9.6" class="st12" width="45.3" height="46.1"/>
<rect x="327.7" y="-9.6" class="st12" width="46.1" height="46.1"/>
<rect x="163.9" y="-9.5" class="st12" width="28.9" height="28.9"/>
<rect x="201" y="-9.5" class="st12" width="28.9" height="28.9"/>
<rect x="236.5" y="-9.5" class="st12" width="28.9" height="28.9"/>
<polygon class="st11" points="242.5,-3.7 238.7,-0.5 240.6,2.5 242.5,1.2 242.5,8.9 250.6,8.9 250.6,1.2 252.4,2.6 254.6,-0.5 
	250.9,-3.7 "/>
<path class="st10" d="M248.8-3.5c0,0,0,0.5,0,0.5c-0.2,1.3-1.8,1.9-2.9,1.5c-1-0.3-1.3-1.1-1.5-2.1H248.8z"/>
<polygon class="st10" points="242.4,-3.7 238.6,-0.5 240.5,2.5 242.4,1.2 242.4,8.9 250.6,8.9 250.6,1.2 252.5,2.6 254.7,-0.5 
	251,-3.7 "/>
<polygon class="st9" points="250.6,-1.4 246.8,1.8 248.7,4.7 250.6,3.5 250.6,11.2 258.7,11.2 258.7,3.5 260.5,4.9 262.8,1.8 
	259,-1.4 "/>
<path class="st10" d="M256.9-1.2c0,0,0,0.5,0,0.5c-0.2,1.3-1.8,1.9-2.9,1.5c-1-0.3-1.3-1.1-1.5-2.1H256.9z"/>
<polygon class="st10" points="250.8,-1.4 247,1.8 248.9,4.7 250.8,3.5 250.8,11.2 259,11.2 259,3.5 260.9,4.9 263.1,1.8 259.4,-1.4 
	"/>
<rect x="203.2" y="-64" class="st12" width="24.4" height="24.4"/>
<rect x="232.4" y="-64" class="st12" width="24.4" height="24.4"/>
<rect x="262.2" y="-64" class="st12" width="24.4" height="24.4"/>
<rect x="291" y="-64" class="st12" width="24.4" height="24.4"/>
<rect x="320.2" y="-64" class="st12" width="24.4" height="24.4"/>
<rect x="349.7" y="-64" class="st12" width="24.4" height="24.4"/>
<text transform="matrix(1 0 0 1 213.1117 -48.7923)" class="st13" style="font-family:'TTFirs-ExtraBold'; font-size:6.812px;">S</text>
<text transform="matrix(1 0 0 1 241.3422 -48.1205)" class="st13" style="font-family:'TTFirs-ExtraBold'; font-size:6.812px;">M</text>
<text transform="matrix(1 0 0 1 271.8148 -48.1205)" class="st13" style="font-family:'TTFirs-ExtraBold'; font-size:6.812px;">L</text>
<text transform="matrix(1 0 0 1 299.1332 -48.1205)" class="st13" style="font-family:'TTFirs-ExtraBold'; font-size:6.812px;">XL</text>
<text transform="matrix(1 0 0 1 325.3481 -48.1205)" class="st13" style="font-family:'TTFirs-ExtraBold'; font-size:6.812px;">XXL</text>
<text transform="matrix(1 0 0 1 352.683 -48.724)" class="st13" style="font-family:'TTFirs-ExtraBold'; font-size:6.812px;">XXXL</text>
<rect x="174.4" y="-64" class="st12" width="24.4" height="24.4"/>
<text transform="matrix(1 0 0 1 181.519 -48.7923)" class="st13" style="font-family:'TTFirs-ExtraBold'; font-size:6.812px;">XS</text>
<g>
	<path class="st14" d="M-267.7,4.7c-1.3,0-2.4-1.1-2.4-2.4S-269,0-267.7,0s2.4,1.1,2.4,2.4S-266.4,4.7-267.7,4.7z M-267.7,1
		c-0.8,0-1.4,0.6-1.4,1.4s0.6,1.4,1.4,1.4s1.4-0.6,1.4-1.4S-267,1-267.7,1z"/>
	<path class="st14" d="M-265.4,18.1h-4.7V5h4.7V18.1z M-269,17.1h2.7V6h-2.7V17.1z"/>
	
		<rect x="-268.2" y="4.2" transform="matrix(0.9996 -2.705868e-02 2.705868e-02 0.9996 -0.2341 -7.2417)" class="st14" width="1" height="1.6"/>
	<path class="st14" d="M-263,22.2h-9.2l2.3-5.1h4.3L-263,22.2z M-270.6,21.2h6l-1.5-3.1h-3.1L-270.6,21.2z"/>
	<rect x="-269.4" y="21.7" class="st14" width="1" height="5.3"/>
	<rect x="-266.7" y="21.7" class="st14" width="1" height="5.3"/>
	<path class="st14" d="M-263.5,17.2l-1,0c0.1-4.8,0-10.1-0.2-10.7C-265,5.9-266,6-266,6.1l-0.2-1c0.6-0.1,1.9-0.1,2.3,0.9
		C-263.4,7-263.5,14.8-263.5,17.2z"/>
	<path class="st14" d="M-272.1,17.2c-0.1-2.4-0.2-10.2,0.4-11.2c0.7-1.2,2.5-0.9,2.7-0.9l-0.2,1c-0.3-0.1-1.4-0.1-1.7,0.4
		c-0.3,0.6-0.4,5.9-0.3,10.7L-272.1,17.2z"/>
	<g>
		<path class="st14" d="M-212.3,4.7c-1.3,0-2.4-1.1-2.4-2.4s1.1-2.4,2.4-2.4c1.3,0,2.4,1.1,2.4,2.4S-211,4.7-212.3,4.7z M-212.3,1
			c-0.8,0-1.4,0.6-1.4,1.4s0.6,1.4,1.4,1.4s1.4-0.6,1.4-1.4S-211.5,1-212.3,1z"/>
		<path class="st14" d="M-209.5,22.2h-5.1V5h5.1V22.2z M-213.6,21.2h3.1V6h-3.1V21.2z"/>
		
			<rect x="-212.8" y="4.2" transform="matrix(0.9996 -2.705868e-02 2.705868e-02 0.9996 -0.2138 -5.7416)" class="st14" width="1" height="1.6"/>
		<rect x="-213.9" y="21.7" class="st14" width="1" height="5.3"/>
		<rect x="-211.3" y="21.7" class="st14" width="1" height="5.3"/>
		<path class="st14" d="M-207.7,17.2l-1,0c0.1-4.8,0-10.1-0.2-10.7c-0.3-0.6-1.2-0.4-1.2-0.4l-0.2-1c0.6-0.1,1.9-0.1,2.3,0.9
			C-207.5,7-207.6,14.8-207.7,17.2z"/>
		<path class="st14" d="M-216.6,17.2c-0.1-2.4-0.2-10.2,0.4-11.2c0.7-1.2,2.5-0.9,2.7-0.9l-0.2,1c-0.3-0.1-1.4-0.1-1.7,0.4
			c-0.3,0.6-0.4,5.9-0.3,10.7L-216.6,17.2z"/>
	</g>
</g>
<g>
	<path class="st13" d="M295.3,5.5c-1.3,0-2.4-1.1-2.4-2.4s1.1-2.4,2.4-2.4s2.4,1.1,2.4,2.4S296.7,5.5,295.3,5.5z M295.3,1.7
		c-0.8,0-1.4,0.6-1.4,1.4s0.6,1.4,1.4,1.4s1.4-0.6,1.4-1.4S296.1,1.7,295.3,1.7z"/>
	<path class="st13" d="M297.7,18.9H293V5.7h4.7V18.9z M294,17.9h2.7V6.7H294V17.9z"/>
	
		<rect x="294.9" y="4.9" transform="matrix(0.9996 -2.705868e-02 2.705868e-02 0.9996 -4.727283e-02 7.9943)" class="st13" width="1" height="1.6"/>
	<path class="st13" d="M300.1,22.9h-9.2l2.3-5.1h4.3L300.1,22.9z M292.5,21.9h6l-1.5-3.1h-3.1L292.5,21.9z"/>
	<rect x="293.7" y="22.4" class="st13" width="1" height="5.3"/>
	<rect x="296.3" y="22.4" class="st13" width="1" height="5.3"/>
	<path class="st13" d="M299.5,17.9l-1,0c0.1-4.8,0-10.1-0.2-10.7c-0.3-0.6-1.2-0.4-1.2-0.4l-0.2-1c0.6-0.1,1.9-0.1,2.3,0.9
		C299.7,7.7,299.6,15.5,299.5,17.9z"/>
	<path class="st13" d="M291,17.9c-0.1-2.4-0.2-10.2,0.4-11.2c0.7-1.2,2.5-0.9,2.7-0.9l-0.2,1c-0.3-0.1-1.4-0.1-1.7,0.4
		c-0.3,0.6-0.4,5.9-0.3,10.7L291,17.9z"/>
	<g>
		<path class="st13" d="M350.8,5.5c-1.3,0-2.4-1.1-2.4-2.4s1.1-2.4,2.4-2.4c1.3,0,2.4,1.1,2.4,2.4S352.1,5.5,350.8,5.5z M350.8,1.7
			c-0.8,0-1.4,0.6-1.4,1.4s0.6,1.4,1.4,1.4s1.4-0.6,1.4-1.4S351.5,1.7,350.8,1.7z"/>
		<path class="st13" d="M353.6,22.9h-5.1V5.7h5.1V22.9z M349.5,21.9h3.1V6.7h-3.1V21.9z"/>
		
			<rect x="350.3" y="4.9" transform="matrix(0.9996 -2.705868e-02 2.705868e-02 0.9996 -2.697439e-02 9.4943)" class="st13" width="1" height="1.6"/>
		<rect x="349.1" y="22.4" class="st13" width="1" height="5.3"/>
		<rect x="351.8" y="22.4" class="st13" width="1" height="5.3"/>
		<path class="st13" d="M355.4,17.9l-1,0c0.1-4.8,0-10.1-0.2-10.7c-0.3-0.6-1.2-0.4-1.2-0.4l-0.2-1c0.6-0.1,1.9-0.1,2.3,0.9
			C355.6,7.7,355.5,15.5,355.4,17.9z"/>
		<path class="st13" d="M346.4,17.9c-0.1-2.4-0.2-10.2,0.4-11.2c0.7-1.2,2.5-0.9,2.7-0.9l-0.2,1c-0.3-0.1-1.4-0.1-1.7,0.4
			c-0.3,0.6-0.4,5.9-0.3,10.7L346.4,17.9z"/>
	</g>
</g>
<g>
	<path class="st4" d="M4.4,4.8C3.1,4.8,2,3.7,2,2.4S3.1,0,4.4,0s2.4,1.1,2.4,2.4S5.7,4.8,4.4,4.8z M4.4,1C3.7,1,3,1.6,3,2.4
		s0.6,1.4,1.4,1.4s1.4-0.6,1.4-1.4S5.2,1,4.4,1z"/>
	<path class="st4" d="M6.8,18.2H2.1V5.1h4.7V18.2z M3.1,17.2h2.7V6.1H3.1V17.2z"/>
	
		<rect x="4" y="4.3" transform="matrix(0.9996 -2.705868e-02 2.705868e-02 0.9996 -0.1355 0.1223)" class="st4" width="1" height="1.6"/>
	<path class="st4" d="M9.2,22.2H0l2.3-5.1h4.3L9.2,22.2z M1.5,21.2h6L6,18.2H2.9L1.5,21.2z"/>
	<rect x="2.8" y="21.7" class="st4" width="1" height="5.3"/>
	<rect x="5.4" y="21.7" class="st4" width="1" height="5.3"/>
	<path class="st4" d="M8.6,17.2l-1,0c0.1-4.8,0-10.1-0.2-10.7C7.1,5.9,6.2,6.1,6.1,6.1L6,5.1C6.6,5,7.8,5,8.3,6
		C8.8,7,8.7,14.8,8.6,17.2z"/>
	<path class="st4" d="M0.1,17.2C0,14.8-0.1,7,0.5,6C1.2,4.8,3,5.1,3.2,5.1L3,6.1C2.7,6,1.7,6,1.4,6.5C1.1,7.1,1,12.4,1.1,17.2
		L0.1,17.2z"/>
	<g>
		<path class="st4" d="M59.9,4.8c-1.3,0-2.4-1.1-2.4-2.4S58.6,0,59.9,0c1.3,0,2.4,1.1,2.4,2.4S61.2,4.8,59.9,4.8z M59.9,1
			c-0.8,0-1.4,0.6-1.4,1.4s0.6,1.4,1.4,1.4s1.4-0.6,1.4-1.4S60.6,1,59.9,1z"/>
		<path class="st4" d="M62.7,22.2h-5.1V5.1h5.1V22.2z M58.5,21.2h3.1V6.1h-3.1V21.2z"/>
		
			<rect x="59.4" y="4.3" transform="matrix(0.9996 -2.705868e-02 2.705868e-02 0.9996 -0.1152 1.6224)" class="st4" width="1" height="1.6"/>
		<rect x="58.2" y="21.7" class="st4" width="1" height="5.3"/>
		<rect x="60.8" y="21.7" class="st4" width="1" height="5.3"/>
		<path class="st4" d="M64.5,17.2l-1,0c0.1-4.8,0-10.1-0.2-10.7C63,5.9,62,6.1,62,6.1l-0.2-1C62.5,5,63.7,5,64.2,6
			C64.6,7,64.5,14.8,64.5,17.2z"/>
		<path class="st4" d="M55.5,17.2C55.5,14.8,55.3,7,55.9,6c0.7-1.2,2.5-0.9,2.7-0.9l-0.2,1C58.1,6,57.1,6,56.8,6.5
			c-0.3,0.6-0.4,5.9-0.3,10.7L55.5,17.2z"/>
	</g>
</g>
<circle class="st15" cx="-495" cy="-8.5" r="1.8"/>
<rect x="-496.7" y="-5.5" class="st15" width="3.5" height="11.5"/>
<line class="st15" x1="-495" y1="-6.7" x2="-495" y2="-5.2"/>
<polygon class="st15" points="-493.2,6 -491.3,9.9 -496.2,9.9 -498.5,9.9 -496.7,6 "/>
<line class="st15" x1="-496.1" y1="14.9" x2="-496.1" y2="9.9"/>
<line class="st15" x1="-493.6" y1="14.9" x2="-493.6" y2="9.9"/>
<path class="st15" d="M-493.5-5.4c0,0,1.3-0.3,1.7,0.6c0.4,0.9,0.3,10.4,0.3,10.4"/>
<path class="st15" d="M-496.2-5.4c0,0-1.6-0.3-2.1,0.6c-0.5,0.9-0.3,10.4-0.3,10.4"/>
</svg>
